<svg xmlns="http://www.w3.org/2000/svg" viewBox="0 0 29.69 34.6"><defs><style>.cls-1{fill:#55734c;}.cls-2{fill:#d43d21;}.cls-3{fill:#f7f1e6;}</style></defs><title>apple-icon</title><g id="圖層_2" data-name="圖層 2"><g id="圖層_1-2" data-name="圖層 1"><g id="Layer_2" data-name="Layer 2"><path class="cls-1" d="M17.23,8.3a15.69,15.69,0,0,1,2.17-.66c.31-.3.59-.61.83-.89A8.28,8.28,0,0,0,22.31.53.58.58,0,0,0,21.74,0h-.33A9.1,9.1,0,0,0,16,2.86a8.07,8.07,0,0,0-2.11,6,.06.06,0,0,1,0,0,2.92,2.92,0,0,0,.82.13A7.58,7.58,0,0,0,17.23,8.3Z"/><path class="cls-2" d="M25.09,8.69a7.78,7.78,0,0,0-5.21-1.21l-.4.07a15.55,15.55,0,0,0-2.16.66A7.12,7.12,0,0,1,14.84,9,2.85,2.85,0,0,1,14,8.85a14.39,14.39,0,0,1-1.66-.64,14,14,0,0,0-2.56-.73A7.77,7.77,0,0,0,4.6,8.69,10.54,10.54,0,0,0,0,17.33V19A22.74,22.74,0,0,0,5.22,32,6.61,6.61,0,0,0,9,34.6h.73c1.93-.28,3.17-1.29,5.13-1.45,2,.16,3.2,1.17,5.14,1.45h.73A6.61,6.61,0,0,0,24.47,32,22.74,22.74,0,0,0,29.69,19V17.33A10.54,10.54,0,0,0,25.09,8.69ZM22.84,19.61C22.49,21.72,20,24.1,17.93,26c0,0-1,1-1.32,1.28a2.14,2.14,0,0,1-1.26.6,2.14,2.14,0,0,1-1.27-.6C13.77,27,12.76,26,12.76,26c-2-1.91-4.56-4.29-4.91-6.4a4.62,4.62,0,0,1,.71-3.67,4.55,4.55,0,0,1,3.35-1.65l.41,0a4.82,4.82,0,0,1,3,1.09,4.87,4.87,0,0,1,3-1.09l.41,0a4.55,4.55,0,0,1,3.35,1.65A4.62,4.62,0,0,1,22.84,19.61Z"/><path class="cls-3" d="M18.78,14.29l-.41,0a4.87,4.87,0,0,0-3,1.09,4.82,4.82,0,0,0-3-1.09l-.41,0a4.55,4.55,0,0,0-3.35,1.65,4.65,4.65,0,0,0-.71,3.67c.35,2.11,2.87,4.49,4.91,6.4,0,0,1,1,1.32,1.28a2.14,2.14,0,0,0,1.27.6,2.14,2.14,0,0,0,1.26-.6C16.92,27,17.93,26,17.93,26c2-1.91,4.56-4.29,4.91-6.4a4.62,4.62,0,0,0-.71-3.67A4.55,4.55,0,0,0,18.78,14.29Z"/><ellipse class="cls-2" cx="15.39" cy="21.68" rx="9.29" ry="8.77"/></g></g></g></svg>