<svg xmlns="http://www.w3.org/2000/svg" viewBox="0 0 81.46 71"><defs><style>.cls-1{fill:#fff;}.cls-2{fill:#006cfc;}.cls-3{fill:#1a6ef5;}.cls-4{fill:#cedae7;}.cls-5{fill:none;}.cls-6{fill:#fcf8f7;}.cls-7{fill:#cbd8ec;}.cls-8{fill:#559cfc;}.cls-9{isolation:isolate;}.cls-10{fill:#ff9076;}</style></defs><title>f-1</title><g id="圖層_2" data-name="圖層 2"><g id="圖層_1-2" data-name="圖層 1"><path class="cls-1" d="M81.42,42.63a62,62,0,0,0-.3-8.51c-.62-6.59-2.07-13.63-7-18.12-5.45-5-13.32-5.31-20.31-5A64.23,64.23,0,0,1,30.24,7.82C23.1,5.43,16,1.61,8.66,5.79a16.68,16.68,0,0,0-7.1,8.66A27.49,27.49,0,0,0,.05,25.7a15.33,15.33,0,0,0,2.28,8.08C6.5,39.69,15.27,40,20.6,44.45,24.31,47.58,25,52.92,27,57.33c4.32,9.42,15.48,14.61,25.79,13.53C64.33,69.66,76.26,62.49,80,51.1A31.6,31.6,0,0,0,81.42,42.63Z"/><path class="cls-1" d="M9.62,54.44l.17.42c.6,1.64.85,3.69,2.55,4.61a3.59,3.59,0,0,0,4.5-1.4,6.05,6.05,0,0,0,.42-5,10.89,10.89,0,0,0-6.37-6.54c-2.8-1.18-6.88-2.09-9.39.18a1,1,0,0,0-.42.84,1,1,0,0,0,.54.59C3.23,49,5,49.22,6.54,50.35A9.3,9.3,0,0,1,9.62,54.44Z"/><path class="cls-1" d="M67,48.37,41.38,6.61l-26.83,11L40.18,59.33,67,48.37"/><path class="cls-2" d="M25.83,16.54a.46.46,0,0,1,.54.18.31.31,0,0,1-.14.47L22.4,18.75a.46.46,0,0,1-.53-.19A.3.3,0,0,1,22,18.1Z"/><path class="cls-3" d="M22.22,10.55a.44.44,0,0,1,.51.18.29.29,0,0,1-.13.45.44.44,0,0,1-.51-.18A.29.29,0,0,1,22.22,10.55Z"/><path class="cls-4" d="M23.54,18.7a.46.46,0,0,1,.53.19.3.3,0,0,1-.13.46l-.93.38a.47.47,0,0,1-.54-.18.3.3,0,0,1,.14-.46Z"/><path class="cls-3" d="M8.71,14.12l1.48-2.72a3.16,3.16,0,0,0,.2,3.22L8.9,17.34A3.18,3.18,0,0,1,8.71,14.12Z"/><path class="cls-2" d="M20.36,18.77a.33.33,0,0,1,.38.13l.93,1.51a.22.22,0,0,1-.1.33L20,21.37a.33.33,0,0,1-.38-.14l-.93-1.51a.22.22,0,0,1,.1-.32Z"/><path class="cls-5" d="M69.19,56.87a2.62,2.62,0,0,0,.19-.46l.17-.32.18-.33.19-.35.2-.36.19-.35.19-.35.19-.34.17-.32a2.62,2.62,0,0,1-.19.46Z"/><path class="cls-2" d="M56.08,43.23a2.79,2.79,0,0,1,3.29,1.17,1.88,1.88,0,0,1-.82,2.85L44.16,53.13A2.79,2.79,0,0,1,40.87,52a1.89,1.89,0,0,1,.82-2.86Zm-1.4,3.6a.38.38,0,0,0,.17-.58.56.56,0,0,0-.67-.24l-8.62,3.52a.38.38,0,0,0-.17.58.56.56,0,0,0,.67.24l8.62-3.52"/><path class="cls-6" d="M54.18,46a.56.56,0,0,1,.67.24.38.38,0,0,1-.17.58l-8.62,3.52a.56.56,0,0,1-.67-.24.38.38,0,0,1,.17-.58Z"/><path class="cls-3" d="M54.62,54.86a2.78,2.78,0,0,1,2.87,1,.22.22,0,0,0-.08.32,1.69,1.69,0,0,1-.77,2.5,2.14,2.14,0,0,1-1.54,0c-1.81-.65-2.09-2.85-.57-3.53A.21.21,0,0,0,54.62,54.86Z"/><path class="cls-7" d="M35.76.27A4.44,4.44,0,0,1,41,2.13L71.18,51.31a3,3,0,0,1-1.3,4.53L45.8,65.67a4.46,4.46,0,0,1-5.23-1.87L10.39,14.62a3,3,0,0,1,1.29-4.52ZM70.52,51.58,40.33,2.4A3.55,3.55,0,0,0,36.16.91L12.08,10.74a2.4,2.4,0,0,0-1,3.62L41.23,63.53A3.54,3.54,0,0,0,45.4,65l24.08-9.83a2.39,2.39,0,0,0,1-3.61"/><path class="cls-4" d="M40.52,10.54a.46.46,0,0,1,.53.19.3.3,0,0,1-.13.46l-6.66,2.72a.46.46,0,0,1-.53-.19.3.3,0,0,1,.13-.46Z"/><path class="cls-3" d="M29.9,7.41a.43.43,0,0,1,.51.19.29.29,0,0,1-.13.44l-6.14,2.51a.44.44,0,0,1-.52-.18.3.3,0,0,1,.13-.45Z"/><path class="cls-7" d="M29.78,7.23a.71.71,0,0,1,.82.29.47.47,0,0,1-.2.71l-6.15,2.51a.71.71,0,0,1-.82-.29.48.48,0,0,1,.21-.71Zm.5.81a.29.29,0,0,0,.13-.44.43.43,0,0,0-.51-.19L23.75,9.92a.3.3,0,0,0-.13.45.45.45,0,0,0,.52.18L30.28,8"/><path class="cls-7" d="M22.1,10.37a.69.69,0,0,1,.82.29.46.46,0,0,1-.2.7.69.69,0,0,1-.82-.29A.46.46,0,0,1,22.1,10.37Zm.5.81a.29.29,0,0,0,.13-.45.44.44,0,0,0-.51-.18.29.29,0,0,0-.13.45.44.44,0,0,0,.51.18"/><path class="cls-8" d="M36.16.91A3.55,3.55,0,0,1,40.33,2.4L70.52,51.58a2.39,2.39,0,0,1-1,3.61L45.4,65a3.54,3.54,0,0,1-4.17-1.49L11,14.36a2.4,2.4,0,0,1,1-3.62ZM67,48.37,41.38,6.61l-26.83,11L40.18,59.33,67,48.37m-10.1,10.8a2.14,2.14,0,0,0,1-3.17.31.31,0,0,0-.37-.13h0a2.78,2.78,0,0,0-2.87-1,.3.3,0,0,0-.37-.16c-1.92.86-1.57,3.64.72,4.46a2.7,2.7,0,0,0,1.94,0M23.64,9.74a.48.48,0,0,0-.21.71.71.71,0,0,0,.82.29L30.4,8.23a.47.47,0,0,0,.2-.71.71.71,0,0,0-.82-.29L23.64,9.74m-1.54.63a.46.46,0,0,0-.2.7.69.69,0,0,0,.82.29.46.46,0,0,0,.2-.7.69.69,0,0,0-.82-.29"/><path class="cls-3" d="M71.37,54.53l-1.48,2.72a2.91,2.91,0,0,1-1.49,1.3l1.48-2.71A3,3,0,0,0,71.37,54.53Z"/><g class="cls-9"><path class="cls-3" d="M71.37,54.53l-1.48,2.72a2.91,2.91,0,0,1-1.49,1.3l1.48-2.71a3,3,0,0,0,1.49-1.31"/></g><path class="cls-7" d="M54.24,54.71a.29.29,0,0,1,.38.15.21.21,0,0,1-.09.31c-1.52.68-1.24,2.88.57,3.53a2.14,2.14,0,0,0,1.54,0,1.69,1.69,0,0,0,.77-2.5.22.22,0,0,1,.08-.32h0a.31.31,0,0,1,.37.13,2.14,2.14,0,0,1-1,3.17,2.7,2.7,0,0,1-1.94,0C52.68,58.34,52.33,55.56,54.24,54.71Z"/><polygon class="cls-3" points="69.88 55.84 68.39 58.55 44.31 68.39 45.8 65.67 69.88 55.84"/><polygon class="cls-3" points="40.57 63.8 39.09 66.52 8.9 17.34 10.39 14.63 40.57 63.8"/><path class="cls-3" d="M45.8,65.67l-1.49,2.72a4.45,4.45,0,0,1-5.22-1.87l1.48-2.72A4.46,4.46,0,0,0,45.8,65.67Z"/><polygon class="cls-3" points="41.22 7.08 66.66 48.52 67.01 48.37 41.38 6.61 14.55 17.56 14.74 17.88 41.22 7.08"/><polygon class="cls-10" points="33.74 34.8 39.71 36 40.9 21.09 44.48 21.09 42.69 40.77 33.74 37.79 33.74 34.8"/></g></g></svg>