<svg xmlns="http://www.w3.org/2000/svg" viewBox="0 0 70.76 68"><defs><style>.cls-1{fill:#d8dce1;}.cls-2{fill:#ff4f19;}.cls-3{fill:#fff;}.cls-4{fill:#5c546a;}.cls-5{fill:#ffd200;}.cls-6{fill:#ff9600;}</style></defs><title>f-2</title><g id="圖層_2" data-name="圖層 2"><g id="圖層_1-2" data-name="圖層 1"><path class="cls-1" d="M0,17.14V62.47A5.54,5.54,0,0,0,5.53,68H65.24a5.53,5.53,0,0,0,5.52-5.53V17.14Z"/><path class="cls-2" d="M65.24,1.66H5.53A5.54,5.54,0,0,0,0,7.19v10H70.76V7.19A5.53,5.53,0,0,0,65.24,1.66ZM8.85,12.72A3.32,3.32,0,1,1,12.16,9.4,3.32,3.32,0,0,1,8.85,12.72Zm53.07,0A3.32,3.32,0,1,1,65.24,9.4,3.32,3.32,0,0,1,61.92,12.72Z"/><path class="cls-3" d="M35.38,27.09a4.42,4.42,0,1,0,4.42,4.42A4.42,4.42,0,0,0,35.38,27.09Z"/><path class="cls-3" d="M24.33,27.09a4.42,4.42,0,1,0,4.42,4.42A4.43,4.43,0,0,0,24.33,27.09Z"/><path class="cls-3" d="M13.27,27.09a4.42,4.42,0,1,0,4.42,4.42A4.42,4.42,0,0,0,13.27,27.09Z"/><path class="cls-3" d="M46.44,27.09a4.42,4.42,0,1,0,4.42,4.42A4.42,4.42,0,0,0,46.44,27.09Z"/><path class="cls-3" d="M57.5,35.93a4.42,4.42,0,1,0-4.43-4.42A4.42,4.42,0,0,0,57.5,35.93Z"/><path class="cls-3" d="M35.38,38.15a4.42,4.42,0,1,0,4.42,4.42A4.42,4.42,0,0,0,35.38,38.15Z"/><path class="cls-3" d="M24.33,38.15a4.42,4.42,0,1,0,4.42,4.42A4.43,4.43,0,0,0,24.33,38.15Z"/><path class="cls-3" d="M13.27,38.15a4.42,4.42,0,1,0,4.42,4.42A4.42,4.42,0,0,0,13.27,38.15Z"/><path class="cls-3" d="M46.44,38.15a4.42,4.42,0,1,0,4.42,4.42A4.42,4.42,0,0,0,46.44,38.15Z"/><path class="cls-3" d="M57.5,38.15a4.42,4.42,0,1,0,4.42,4.42A4.43,4.43,0,0,0,57.5,38.15Z"/><path class="cls-3" d="M35.38,49.2a4.43,4.43,0,1,0,4.42,4.43A4.43,4.43,0,0,0,35.38,49.2Z"/><path class="cls-3" d="M24.33,49.2a4.43,4.43,0,1,0,4.42,4.43A4.44,4.44,0,0,0,24.33,49.2Z"/><path class="cls-3" d="M13.27,49.2a4.43,4.43,0,1,0,4.42,4.43A4.43,4.43,0,0,0,13.27,49.2Z"/><path class="cls-3" d="M46.44,49.2a4.43,4.43,0,1,0,4.42,4.43A4.43,4.43,0,0,0,46.44,49.2Z"/><path class="cls-3" d="M57.5,49.2a4.43,4.43,0,1,0,4.42,4.43A4.44,4.44,0,0,0,57.5,49.2Z"/><path class="cls-4" d="M8.85,11.06A1.66,1.66,0,0,1,7.19,9.4V1.66a1.66,1.66,0,1,1,3.31,0V9.4A1.66,1.66,0,0,1,8.85,11.06Z"/><path class="cls-4" d="M61.92,11.06A1.66,1.66,0,0,1,60.26,9.4V1.66a1.66,1.66,0,1,1,3.32,0V9.4A1.67,1.67,0,0,1,61.92,11.06Z"/><circle class="cls-5" cx="13.27" cy="31.51" r="4.42"/><circle class="cls-6" cx="35.38" cy="53.63" r="4.42"/><circle class="cls-2" cx="46.44" cy="42.57" r="4.42"/></g></g></svg>