<svg xmlns="http://www.w3.org/2000/svg" viewBox="0 0 76.01 76"><defs><style>.cls-1{fill:#af8066;}.cls-2{fill:#7f8c8d;}.cls-3{fill:#7f5b53;}.cls-4{fill:#cbb292;}.cls-5{fill:#fdd7ad;}.cls-6{fill:#ff5364;}.cls-7{opacity:0.57;}.cls-8{fill:#fff;}</style></defs><title>f-3</title><g id="圖層_2" data-name="圖層 2"><g id="圖層_1-2" data-name="圖層 1"><polyline class="cls-1" points="20.93 24.44 7.86 30.13 0 36.69 7.86 40.1 7.86 62.9 38.01 76 68.15 62.9 68.11 62.88 68.15 62.78 68.15 39.99 76.01 36.57 68.15 30.01 68.15 30.13 55.26 24.54"/><path class="cls-2" d="M68.15,30.13,38.1,43.2l-.1,0L7.86,30.13l13.07-5.69C24.82,29.59,32,34.55,38.14,38c6.09-3.42,13.23-8.34,17.12-13.45Z"/><polygon class="cls-1" points="68.15 62.78 68.11 62.88 68.15 62.9 38.01 76 38.01 43.24 38.1 43.2 45.87 49.67 68.15 39.99 68.15 62.78"/><polygon class="cls-3" points="38.01 43.24 38.01 76 7.86 62.9 7.86 40.1 30.14 49.79 38.01 43.24"/><polygon class="cls-4" points="38.01 43.24 30.14 49.79 7.86 40.1 0 36.69 7.86 30.13 38.01 43.24"/><polygon class="cls-5" points="76.01 36.57 68.15 39.99 45.87 49.67 38.1 43.2 68.15 30.13 68.15 30.01 76.01 36.57"/><path class="cls-6" d="M56.78,22.26a16.44,16.44,0,0,1-1.52,2.28c-3.89,5.11-11,10-17.12,13.45C32,34.55,24.82,29.59,20.93,24.44a17.48,17.48,0,0,1-1.44-2.18c-4.66-7.88-4.66-15.74,0-19.69a12.58,12.58,0,0,1,18.65,4A12.57,12.57,0,0,1,56.78,2.57C61.45,6.52,61.45,14.38,56.78,22.26Z"/><g class="cls-7"><path class="cls-8" d="M26.21,9.16a1.3,1.3,0,0,1-.93-.38,1.34,1.34,0,0,1-.38-.93V6.54a1.31,1.31,0,0,1,2.62,0V7.85a1.34,1.34,0,0,1-.38.93A1.3,1.3,0,0,1,26.21,9.16Z"/><path class="cls-8" d="M26.21,15.72a1.31,1.31,0,0,1-1.31-1.31V13.1a1.31,1.31,0,1,1,2.62,0v1.31a1.31,1.31,0,0,1-1.31,1.31Z"/><path class="cls-8" d="M23.59,11.78H22.28a1.31,1.31,0,1,1,0-2.62h1.31a1.31,1.31,0,0,1,0,2.62Z"/><path class="cls-8" d="M30.14,11.78H28.83a1.31,1.31,0,1,1,0-2.62h1.31a1.31,1.31,0,0,1,0,2.62Z"/></g></g></g></svg>