<svg xmlns="http://www.w3.org/2000/svg" viewBox="0 0 65.52 69.53"><defs><style>.cls-1{fill:#ebebeb;}.cls-2{fill:#ec9e15;}.cls-3{fill:#dbdbdb;}.cls-4{fill:#fdb62f;}.cls-5{fill:#878787;}.cls-6{fill:#8e7760;}.cls-7{fill:#c3c3c3;}.cls-8{fill:#f5b02e;}.cls-9{fill:#4298d1;}.cls-10{fill:#97d9a9;}.cls-11{fill:#6a9876;}</style></defs><title>f-4</title><g id="圖層_2" data-name="圖層 2"><g id="圖層_1-2" data-name="圖層 1"><path class="cls-1" d="M38.78,34.77l-2.71,3a31.62,31.62,0,0,0-8,21l2.67,1.34H58.83l1.34-1.34a31.62,31.62,0,0,0-8-21l-2.71-3,2.71-3a31.67,31.67,0,0,0,8-21L58.83,9.36H29.42L28.08,10.7a31.67,31.67,0,0,0,8,21Z"/><path class="cls-2" d="M28.08,58.83H60.17v6.69H28.08Z"/><path class="cls-3" d="M28.08,4H60.17V10.7H28.08Z"/><circle class="cls-4" cx="44.43" cy="26.74" r="9.36"/><path class="cls-5" d="M24.07,65.52a1.34,1.34,0,0,1-1.34-1.34V4a1.34,1.34,0,0,1,2.68,0V64.18A1.34,1.34,0,0,1,24.07,65.52Z"/><path class="cls-5" d="M64.18,65.52a1.34,1.34,0,0,1-1.34-1.34V4a1.34,1.34,0,0,1,2.68,0V64.18A1.34,1.34,0,0,1,64.18,65.52Z"/><path class="cls-6" d="M22.73,0H65.52V5.35H22.73Z"/><path class="cls-6" d="M22.73,64.18H65.52v5.35H22.73Z"/><path class="cls-7" d="M28.08,5.32H60.17V6.64H28.08Z"/><path class="cls-8" d="M42.79,40.11h2.67v2.68H42.79Z"/><path class="cls-8" d="M46.8,45.46h2.67v2.68H46.8Z"/><path class="cls-2" d="M38.78,45.46h2.67v2.68H38.78Z"/><path class="cls-8" d="M40.11,50.81h2.68v2.68H40.11Z"/><path class="cls-2" d="M45.46,53.49h2.68v2.67H45.46Z"/><path class="cls-2" d="M50.81,49.47h2.68v2.68H50.81Z"/><path class="cls-9" d="M44.13,37.44a10.69,10.69,0,1,1,3.75-.68A10.71,10.71,0,0,1,44.13,37.44Zm0-18.72a8,8,0,1,0,8,8,8.18,8.18,0,0,0-.52-2.81A8,8,0,0,0,44.11,18.72Z"/><path class="cls-9" d="M48.82,29.17a1.63,1.63,0,0,1-.31,0L43.82,28a1.33,1.33,0,0,1-1-.83L41,22.2a1.34,1.34,0,0,1,2.51-.94l1.62,4.34,4,.93a1.34,1.34,0,0,1-.3,2.64Z"/><path class="cls-10" d="M31.46,65.66l-.28-.14v-12a13.37,13.37,0,0,0-10.8-13.12l1.18-8.28H10.87l1.2,8.39a13.37,13.37,0,0,0-10.31,13v12l-.28.14a2.68,2.68,0,0,0-1.2,3.59h0l.14.28h32.1l.14-.28a2.68,2.68,0,0,0-1.2-3.59Z"/><path class="cls-11" d="M16.21,43.07a15.8,15.8,0,0,1-8.14-2.26l-1.48-.89a1.34,1.34,0,0,1-.5-1.82,1.35,1.35,0,0,1,1.83-.5l0,0,1.48.89a13.37,13.37,0,0,0,13.53,0l1-.61a1.34,1.34,0,0,1,1.42,2.27l-.05,0-1,.61a15.78,15.78,0,0,1-8.14,2.26Z"/><path class="cls-11" d="M16.21,53.49a1.34,1.34,0,1,1,1.34-1.34h2.68a4,4,0,0,0-2.85-3.82V46.8H14.71v1.64a4,4,0,0,0,1.5,7.72,1.34,1.34,0,1,1-1.33,1.34H12.2a4,4,0,0,0,2.51,3.71v1.63h2.67V61.31a4,4,0,0,0-1.17-7.82Z"/></g></g></svg>