<?xml version="1.0" encoding="UTF-8"?>
<svg width="449px" height="352px" viewBox="0 0 449 352" version="1.1" xmlns="http://www.w3.org/2000/svg" xmlns:xlink="http://www.w3.org/1999/xlink">
    <!-- Generator: Sketch 51.3 (57544) - http://www.bohemiancoding.com/sketch -->
    <title>1424835</title>
    <desc>Created with Sketch.</desc>
    <defs></defs>
    <g id="Page-1" stroke="none" stroke-width="1" fill="none" fill-rule="evenodd">
        <g id="1424835" fill-rule="nonzero">
            <path d="M346.761719,0.957031 L101.507812,0.957031 C72.644531,0.957031 46.710938,18.589844 36.101562,45.429688 L30.273438,60.171875 C20.570312,84.710938 38.65625,111.3125 65.046875,111.3125 L383.21875,111.3125 C409.609375,111.3125 427.699219,84.710938 417.996094,60.171875 L412.167969,45.429688 C401.554688,18.589844 375.625,0.957031 346.761719,0.957031 Z" id="Shape" fill="#A5E1C5"></path>
            <path d="M217.683594,111.3125 C179.246094,86.632812 172.34375,32.054688 186.320312,0.953125 L101.507812,0.953125 C72.644531,0.953125 46.714844,18.589844 36.101562,45.429688 L30.273438,60.167969 C20.570312,84.710938 38.65625,111.3125 65.046875,111.3125 L217.683594,111.3125 Z" id="Shape" fill="#91D6B5"></path>
            <path d="M417.648438,321.402344 L30.617188,321.402344 C13.707031,321.402344 0,307.695312 0,290.785156 L0,249.953125 C0,213.578125 9.238281,177.800781 26.847656,145.972656 L50.324219,103.542969 C59.332031,87.261719 76.472656,77.15625 95.078125,77.15625 L353.1875,77.15625 C371.796875,77.15625 388.9375,87.261719 397.945312,103.542969 L421.421875,145.972656 C439.027344,177.800781 448.265625,213.578125 448.265625,249.953125 L448.265625,290.785156 C448.269531,307.695312 434.558594,321.402344 417.648438,321.402344 Z" id="Shape" fill="#7BD0A7"></path>
            <path d="M172.054688,77.15625 L95.082031,77.15625 C76.472656,77.15625 59.332031,87.261719 50.324219,103.542969 L26.847656,145.972656 C9.238281,177.800781 0,213.578125 0,249.953125 L0,290.785156 C0,307.695312 13.707031,321.402344 30.617188,321.402344 L245.171875,321.402344 C156.230469,273.765625 155.035156,147.394531 172.054688,77.15625 Z" id="Shape" fill="#68BF97"></path>
            <path d="M1.12410081e-14,249.953125 L1.12410081e-14,290.785156 C1.12410081e-14,307.695312 13.707031,321.402344 30.617188,321.402344 L417.648438,321.402344 C434.558594,321.402344 448.269531,307.695312 448.269531,290.785156 L448.269531,249.953125 C448.269531,247.863281 448.230469,245.777344 448.167969,243.695312 L0.0976562,243.695312 C0.0390625,245.777344 -2.84217094e-14,247.863281 1.12410081e-14,249.953125 Z" id="Shape" fill="#A5E1C5"></path>
            <path d="M-2.96984659e-15,249.953125 L-2.96984659e-15,290.785156 C-2.96984659e-15,307.695312 13.707031,321.402344 30.617188,321.402344 L245.171875,321.402344 C212.488281,303.898438 191.636719,275.773438 179.203125,243.691406 L0.0976562,243.691406 C0.0390625,245.777344 -1.42108547e-14,247.863281 -1.42108547e-14,249.953125 Z" id="Shape" fill="#91D6B5"></path>
            <path d="M312.519531,199.28125 C312.519531,248.09375 272.945312,287.664062 224.132812,287.664062 C175.320312,287.664062 135.75,248.09375 135.75,199.28125 C135.75,150.46875 175.320312,110.894531 224.132812,110.894531 C272.945312,110.894531 312.519531,150.46875 312.519531,199.28125 Z" id="Shape" fill="#FFFFFF"></path>
            <path d="M224.132812,287.664062 C244.035156,287.664062 262.398438,281.082031 277.171875,269.980469 C161.867188,282.886719 140.425781,174.652344 177.335938,124.3125 C152.367188,139.933594 135.75,167.660156 135.75,199.28125 C135.75,248.09375 175.320312,287.664062 224.132812,287.664062 Z" id="Shape" fill="#F0F0EF"></path>
            <path d="M249.597656,199.28125 C249.597656,213.34375 238.195312,224.742188 224.132812,224.742188 C210.070312,224.742188 198.671875,213.34375 198.671875,199.28125 C198.671875,185.21875 210.070312,173.816406 224.132812,173.816406 C238.195312,173.816406 249.597656,185.21875 249.597656,199.28125 Z" id="Shape" fill="#80BBE6"></path>
            <g id="Group" transform="translate(105.000000, 44.000000)" fill="#495059">
                <path d="M25.871094,0.144531 L9.925781,0.144531 C4.976562,0.144531 0.964844,4.15625 0.964844,9.101562 L0.964844,33.15625 L34.832031,33.15625 L34.832031,9.101562 C34.832031,4.15625 30.820312,0.144531 25.871094,0.144531 Z" id="Shape"></path>
                <path d="M212.394531,0.144531 L228.34375,0.144531 C233.289062,0.144531 237.300781,4.15625 237.300781,9.101562 L237.300781,33.15625 L203.4375,33.15625 L203.4375,9.101562 C203.4375,4.15625 207.449219,0.144531 212.394531,0.144531 Z" id="Shape"></path>
                <path d="M128.78125,92.46875 C128.78125,97.796875 124.460938,102.113281 119.132812,102.113281 C113.808594,102.113281 109.488281,97.796875 109.488281,92.46875 C109.488281,87.140625 113.808594,82.824219 119.132812,82.824219 C124.460938,82.824219 128.78125,87.140625 128.78125,92.46875 Z" id="Shape"></path>
                <path d="M84.367188,110.867188 C84.367188,116.191406 80.046875,120.511719 74.71875,120.511719 C69.394531,120.511719 65.074219,116.191406 65.074219,110.867188 C65.074219,105.539062 69.394531,101.21875 74.71875,101.21875 C80.046875,101.21875 84.367188,105.539062 84.367188,110.867188 Z" id="Shape"></path>
                <path d="M65.96875,155.28125 C65.96875,160.605469 61.648438,164.925781 56.324219,164.925781 C50.996094,164.925781 46.675781,160.605469 46.675781,155.28125 C46.675781,149.953125 50.996094,145.632812 56.324219,145.632812 C61.648438,145.632812 65.96875,149.953125 65.96875,155.28125 Z" id="Shape"></path>
                <path d="M84.367188,199.695312 C84.367188,205.019531 80.046875,209.339844 74.71875,209.339844 C69.394531,209.339844 65.074219,205.019531 65.074219,199.695312 C65.074219,194.367188 69.394531,190.046875 74.71875,190.046875 C80.046875,190.046875 84.367188,194.367188 84.367188,199.695312 Z" id="Shape"></path>
                <path d="M128.78125,218.089844 C128.78125,223.417969 124.460938,227.738281 119.132812,227.738281 C113.808594,227.738281 109.488281,223.417969 109.488281,218.089844 C109.488281,212.761719 113.808594,208.445312 119.132812,208.445312 C124.460938,208.445312 128.78125,212.761719 128.78125,218.089844 Z" id="Shape"></path>
                <path d="M173.195312,199.695312 C173.195312,205.019531 168.875,209.339844 163.546875,209.339844 C158.21875,209.339844 153.902344,205.019531 153.902344,199.695312 C153.902344,194.367188 158.21875,190.046875 163.546875,190.046875 C168.875,190.046875 173.195312,194.367188 173.195312,199.695312 Z" id="Shape"></path>
                <path d="M191.589844,155.28125 C191.589844,160.605469 187.273438,164.925781 181.945312,164.925781 C176.617188,164.925781 172.300781,160.605469 172.300781,155.28125 C172.300781,149.953125 176.617188,145.632812 181.945312,145.632812 C187.273438,145.632812 191.589844,149.953125 191.589844,155.28125 Z" id="Shape"></path>
                <path d="M173.195312,110.867188 C173.195312,116.191406 168.875,120.511719 163.546875,120.511719 C158.21875,120.511719 153.902344,116.191406 153.902344,110.867188 C153.902344,105.539062 158.21875,101.21875 163.546875,101.21875 C168.875,101.21875 173.195312,105.539062 173.195312,110.867188 Z" id="Shape"></path>
            </g>
            <path d="M242.394531,212.121094 L236.972656,217.539062 C231.5,223.011719 230.984375,231.714844 235.773438,237.796875 L266.851562,277.25 C272.511719,284.4375 283.183594,285.070312 289.65625,278.597656 L303.453125,264.800781 C309.925781,258.328125 309.292969,247.660156 302.101562,241.996094 L262.648438,210.921875 C256.570312,206.132812 247.867188,206.644531 242.394531,212.121094 Z" id="Shape" fill="#7397DA"></path>
            <path d="M103.042969,351.449219 L68.585938,351.449219 C63.34375,351.449219 59.09375,347.199219 59.09375,341.957031 L59.09375,321.402344 L112.535156,321.402344 L112.535156,341.957031 C112.535156,347.199219 108.285156,351.449219 103.042969,351.449219 Z" id="Shape" fill="#495059"></path>
            <path d="M345.226562,351.449219 L379.683594,351.449219 C384.925781,351.449219 389.175781,347.199219 389.175781,341.957031 L389.175781,321.402344 L335.734375,321.402344 L335.734375,341.957031 C335.734375,347.199219 339.984375,351.449219 345.226562,351.449219 Z" id="Shape" fill="#495059"></path>
        </g>
    </g>
</svg>