<?xml version="1.0" encoding="UTF-8" standalone="no"?>
<svg width="25px" height="34px" viewBox="0 0 25 34" version="1.1" xmlns="http://www.w3.org/2000/svg" xmlns:xlink="http://www.w3.org/1999/xlink">
    <!-- Generator: Sketch 50 (54983) - http://www.bohemiancoding.com/sketch -->
    <title>calculating</title>
    <desc>Created with Sketch.</desc>
    <defs></defs>
    <g id="web" stroke="none" stroke-width="1" fill="none" fill-rule="evenodd">
        <g id="calculating" fill-rule="nonzero">
            <path d="M21.7742195,34 C23.5484389,34 25,32.5599805 25,30.8000156 L25,3.19998438 C25,1.44001953 23.548372,0 21.7742195,0 L3.22578054,0 C1.45162802,0 0,1.44001953 0,3.19998438 L0,30.7999492 C0,32.5599805 1.45162802,33.9999336 3.22578054,33.9999336 L21.7742195,33.9999336 L21.7742195,34 Z" id="Shape" fill="#D0D0D0"></path>
            <g id="Group" transform="translate(4.000000, 26.000000)" fill="#ADA7A4">
                <rect id="Rectangle-path" x="0.0328571429" y="0.0421666667" width="3.44201299" height="2.94483333"></rect>
                <rect id="Rectangle-path" x="6.52571429" y="0.0421666667" width="3.44201299" height="2.94483333"></rect>
            </g>
            <rect id="Rectangle-path" fill="#7A7674" x="17" y="20" width="3" height="10"></rect>
            <g id="Group" transform="translate(4.000000, 13.000000)" fill="#ADA7A4">
                <rect id="Rectangle-path" x="0.0328571429" y="6.54337662" width="3.44201299" height="3.44201299"></rect>
                <rect id="Rectangle-path" x="6.52571429" y="6.54337662" width="3.44201299" height="3.44201299"></rect>
                <rect id="Rectangle-path" x="0.0328571429" y="0.0504545455" width="3.44201299" height="3.44201299"></rect>
                <rect id="Rectangle-path" x="6.52571429" y="0.0504545455" width="3.44201299" height="3.44201299"></rect>
            </g>
            <rect id="Rectangle-path" fill="#EE3840" x="17" y="13" width="3" height="3"></rect>
            <g id="Group" transform="translate(4.000000, 4.000000)" fill="#29C2B9">
                <polygon id="Shape" points="0.0338661417 0.0154945055 0.0338661417 5.9729011 2.62562992 5.9729011 8.67287795 2.9941978 8.67287795 0.0154945055"></polygon>
                <polygon id="Shape" points="16.9661339 0.0154945055 14.3743031 0.0154945055 8.32705512 2.9941978 8.32705512 5.9729011 16.9661339 5.9729011"></polygon>
            </g>
            <polygon id="Shape" fill="#FFFFFF" points="13.1766103 4 7 10 12.8233897 10 19 4"></polygon>
        </g>
    </g>
</svg>