<svg xmlns="http://www.w3.org/2000/svg" viewBox="0 0 277.06 448.53"><defs><style>.cls-1{fill:#507cbe;}.cls-2{fill:#c97a2b;}.cls-3{fill:#e2e1e0;}.cls-4{fill:#666cb1;}.cls-5{fill:#2f335d;}.cls-6{fill:#f8b6a3;}.cls-7{fill:#f18a6f;}.cls-8{fill:#fffefe;}.cls-9{fill:#8b4c37;}.cls-10{fill:#b1c9e9;}.cls-11{fill:#fdd177;}.cls-12{fill:#89cab8;}.cls-13{fill:#ee7e6a;}.cls-14{fill:#a3daf7;}.cls-15{fill:#79b3c4;}.cls-16{fill:#624a41;}.cls-17{fill:#82655a;}</style></defs><title>kite-img</title><g id="圖層_2" data-name="圖層 2"><g id="常見問題"><path class="cls-1" d="M209.89,301.33c-3.91,1.22-11.55,2-14.11,5.16s.49,8.53.89,12.74,1.45,8.4,1.2,12.62c-.19,3.28-1.16,6.48-1.33,9.76s.66,6.89,3.27,8.88a13.19,13.19,0,0,0,4.82,2c2.82.71,6,1.3,8.5-.12a10.5,10.5,0,0,0,3.77-4.42c3.28-6.14,4.92-13.19,9.16-18.71,1.81-2.36,4.06-4.37,5.77-6.82s2.85-5.53,2-8.4c-1.08-3.86-5.22-6-9.12-6.93s-8.07-1.16-11.51-3.22a17.27,17.27,0,0,0-3.44-1.95,3,3,0,0,0-3.52,1Z"/><path class="cls-2" d="M182,446.25a2.81,2.81,0,0,0,.77,2,1.87,1.87,0,0,0,2.27-.15,5,5,0,0,0,1.36-2,33.77,33.77,0,0,0,2.27-7.41,11,11,0,0,1,1.19-4,4.89,4.89,0,0,1,.35-.5,24.67,24.67,0,0,1,3-2.66c1.7-1.52,3-3.8,2.5-6s-3.34-3.84-5.2-2.52l1.38-.4c-1.86,1.63-3.67,3.35-5.59,4.91a11.17,11.17,0,0,1-1,.7,9.32,9.32,0,0,0-2.87,2.35,7.22,7.22,0,0,0-.77,2.9A57.32,57.32,0,0,0,182,446.25Z"/><path class="cls-3" d="M185.28,428.11a16.57,16.57,0,0,0,2.7,4.12,9.62,9.62,0,0,0,2.2,1.88,24.67,24.67,0,0,1,3-2.66c1.7-1.52,3-3.8,2.5-6s-3.34-3.84-5.2-2.52l1.38-.4c-1.86,1.63-3.67,3.35-5.59,4.91A11.17,11.17,0,0,1,185.28,428.11Z"/><path class="cls-2" d="M257.93,440.54a5.36,5.36,0,0,0,2.64,1.21c5.1,1.26,10.36,2.48,15.57,1.75.38-.05.84-.19.91-.57a.82.82,0,0,0-.15-.56c-1.38-2.46-4.25-3.56-6.86-4.6a14.48,14.48,0,0,1-5-2.92,6,6,0,0,1-1.4-2.21c-.63-1.8-.22-3.81-.71-5.66a5.21,5.21,0,0,0-.31-.83,7.8,7.8,0,0,0-5.17-.2c-.18.17-.36.36-.54.55l-.09-.31-.15.08c-.14,1.76,1,3,.82,4.73.37,2.06-.7,4.38-.62,5.31,0,.15,0,.28,0,.39C256.93,438.05,257,439.56,257.93,440.54Z"/><path class="cls-3" d="M256.17,433.31a8.48,8.48,0,0,0,1.82,1.12,13.59,13.59,0,0,0,7.55.57c-.35-.81-1.76-1.72-1.72-2.62.07-1.91,1.18-3.64,1.4-5.53a5.32,5.32,0,0,0,0-.89,7.73,7.73,0,0,0-4.74-2.07c-.23.09-.47.2-.7.31,0-.11,0-.21,0-.32h-.17c-.77,1.6-1.57,3.18-2.42,4.74C256.81,430.68,256.44,432.42,256.17,433.31Z"/><path class="cls-4" d="M254.75,354.06l-29.58-15.33a3.82,3.82,0,0,0-2.31,2.81L220,344.61a14.84,14.84,0,0,0-2.7,8.33c.17,5.47,4.46,8.87,8.91,11.29a129.31,129.31,0,0,0,14.75,6.4c4.05,1.58,10.39,2.9,13.87,6.13.63.63-.26,6.57-.26,7.7,0,2.79.08,5.59.22,8.37.25,4.88.62,9.75.92,14.62.08,1.23-.81,20.54-.08,21.53,1.06,1.42,3,1.72,4.82,1.73a6.56,6.56,0,0,0,3.08-.53,5,5,0,0,0,2.39-3.65c.66-4,1.84-26.14,2.37-30.19a134,134,0,0,0,1.45-21.64,22.39,22.39,0,0,0-1.94-9.66C265.76,359.94,259.33,356.44,254.75,354.06Z"/><path class="cls-4" d="M241.92,352.38a1.89,1.89,0,0,0,.05-.23c1.92-7.51-.14-16.59-7.22-20.48-5.27-2.91-14.28-3.48-18.77,1.22-6.74,7.06-9.44,21.89-8.59,31.21.49,5.37,1.92,10.61,2.59,15.95.55,4.39,1.36,10.25-.44,14.37a33.39,33.39,0,0,1-4.45,6.77c-2.94,2.68-5.14,7-7.28,10.32-2.26,3.5-4.91,6.8-7.42,10.14-1,1.39-2.14,3-1.89,4.7a6.38,6.38,0,0,0,2.08,3.3,4.63,4.63,0,0,0,2.82,1.66,4.86,4.86,0,0,0,3.06-1.45c9-7.37,17.7-14.25,24.19-24.07,7-10.57,7.52-24.4,8.82-36.82.21-2.08-.33-5.85,1.06-7.5s5.17-2.28,7-3.43a10.1,10.1,0,0,0,3-2.62A9.39,9.39,0,0,0,241.92,352.38Z"/><path class="cls-5" d="M220.25,295.09c.07.83-.28,5-1.63,4.84-.43-.06-.69-.49-.92-.86-1.5-2.41-4.06-3.94-6.12-5.89s-3.73-4.92-2.7-7.57c.3-.77.81-1.45,1.1-2.23.23-.61.32-1.27.5-1.9a8.11,8.11,0,0,1,5.32-5.28c3.78-1.24,6.57,1,10.15.81,1,0,2.26-.12,2.54.81a4.59,4.59,0,0,1,0,1.05c.06,1.07,1.19,1.91,1.06,3s-1.1,1.44-2,1.81a18.8,18.8,0,0,0-5,2.82,7.35,7.35,0,0,0-2.73,4.9A22.23,22.23,0,0,0,220.25,295.09Z"/><path class="cls-6" d="M217.93,295l.07.09-.23.14.07-.21,0-.09Z"/><path class="cls-6" d="M231.42,304.6a55,55,0,0,1-5.86,2.27c-1.65.32-5.56,1.17-7-.11s-.12-5.28-.18-7a26.32,26.32,0,0,0-1.41-6.41c1.08-.55,2.66.84,3.94.74a23.53,23.53,0,0,1,5.17.1,2,2,0,0,1,1.45.62,2.16,2.16,0,0,1,.22,1.21c0,.3,0,.59,0,.89a12.11,12.11,0,0,0,1,3.92A11.92,11.92,0,0,0,231.42,304.6Z"/><path class="cls-7" d="M217.16,292l3.65,2.69a12.37,12.37,0,0,1,3,.42,17.39,17.39,0,0,1,4,1.74,12.35,12.35,0,0,0,.49,2.55,2.86,2.86,0,0,1,.2.94l.19.14.12.29a5.62,5.62,0,0,1-2.38-.15,22.21,22.21,0,0,1-6.13-3.48,9,9,0,0,1-2.19-2.21,5.55,5.55,0,0,1-.67-1.36A13.65,13.65,0,0,0,217.16,292Z"/><path class="cls-6" d="M231.38,293.12q0-.36-.09-.72a23.31,23.31,0,0,0-3.27-8.93c-.78-1.19-1.93-2.42-3.35-2.28-1.72.18-2.59,2.25-4.19,2.92-.51.21-1.11.31-1.44.74a2,2,0,0,0-.3,1.15c-.05,1.14.75,4.35-.7,4.83-.33.11-1.83-3.51-3.41-1.8-1.32,1.42,1.16,4.1,2.55,4.34a16.66,16.66,0,0,0,8.26,5.16,5.54,5.54,0,0,0,3.53,0,4.14,4.14,0,0,0,2.19-2.64A7.48,7.48,0,0,0,231.38,293.12Z"/><path class="cls-8" d="M224.25,292.48a.47.47,0,0,1,.38-.11,6.15,6.15,0,0,0,3.73-.5c.18-.18.37-.37.61-.33a.46.46,0,0,1,.35.45,1.37,1.37,0,0,1-.13.59,3.76,3.76,0,0,1-.82,1.34,2.32,2.32,0,0,1-.25.21,2.36,2.36,0,0,1-2.43-.08,5.69,5.69,0,0,1-1.29-.94.59.59,0,0,1-.22-.51A.75.75,0,0,1,224.25,292.48Z"/><path class="cls-5" d="M227.25,286.38c.17-.11.28,0,.47,0a1,1,0,0,0,.63,0,.85.85,0,0,0,.41-.36c.08-.13.11-.3.24-.39s0,0,.05,0c.23.29-.15.78-.39.94a1.49,1.49,0,0,1-1.33.09.18.18,0,0,1-.12-.15v0A.1.1,0,0,1,227.25,286.38Z"/><path class="cls-5" d="M221.86,287.89a2.18,2.18,0,0,0,.88,0,.92.92,0,0,0,.75-.71.06.06,0,0,1,.1,0c.29.4-.12.82-.47,1a1.75,1.75,0,0,1-1.38.12C221.52,288.21,221.61,287.83,221.86,287.89Z"/><path class="cls-7" d="M228.14,295c.22,0,.64-.08.76.16,0,0,0,0,0,.05-.18.08-.42,0-.61,0a1,1,0,0,0-.4.15c-.13.09-.18.22-.29.32a.14.14,0,0,1-.22-.12C227.4,295.22,227.84,295,228.14,295Z"/><path class="cls-7" d="M215.31,290.24a1.57,1.57,0,0,1,1.3.66.16.16,0,0,1,0,.07,1.09,1.09,0,0,1,.22.41,0,0,0,0,1-.08.05l-.28-.27-.08,0a.53.53,0,0,0-.67-.05.15.15,0,0,1-.18-.23.81.81,0,0,1,.37-.16,1.12,1.12,0,0,0-.6-.16C215.17,290.53,215.12,290.27,215.31,290.24Z"/><path class="cls-5" d="M226.56,283.79a1.32,1.32,0,0,1,1.56-.79c.14,0,.1.27,0,.28a1.27,1.27,0,0,0-.71.22,1.6,1.6,0,0,0-.4.56C226.83,284.34,226.4,284.07,226.56,283.79Z"/><path class="cls-5" d="M220.28,286.2a2.14,2.14,0,0,1,2.48-.61s0,.07,0,.08a4.25,4.25,0,0,1-1.07.15,2.55,2.55,0,0,0-1.15.6C220.39,286.51,220.19,286.36,220.28,286.2Z"/><path class="cls-7" d="M207.83,344.26c.43,3.88-2.79,11.69,3,12.35,8.06.9,22.8.86,29.56-4.54,7.07-5.66,2.46-12.35,2.24-20.35-.12-4.69,0-9.39.18-14.07.06-1.84-.35-5.6.91-7.06,1.06-1.24,4.86-2,6.39-2.68a24.49,24.49,0,0,0,6.15-3.77,22.7,22.7,0,0,0,4.74-6.67,52.87,52.87,0,0,0,5.09-15.74c.22-1.39.39-2.79.5-4.2.05-.75.41-2.7-.56-3a.78.78,0,0,0-.35-.05,2.43,2.43,0,0,0-1.55.87,39.52,39.52,0,0,0-3.76,4.21,40.49,40.49,0,0,0-5.57,9.75c-.8,2-1,5-2.59,6.45s-4.9,1.62-7,2.34a64.42,64.42,0,0,1-14.72,3.16c-9.16.93-16.62,1.55-25.91.83a2.17,2.17,0,0,0-1.34.19,2,2,0,0,0-.68,1c-2.85,7.44-1.49,15.8.64,23.48C204.83,332.48,207.17,338.31,207.83,344.26Z"/><path class="cls-7" d="M176.25,271.24c0,.62,0,1.14,0,1.47.12,12,4.76,21.88,12.34,31,3.65,4.37,7.31,10.39,12.87,12.51,6.12,2.33,11.33-3.8,14.24-8.54a1.29,1.29,0,0,0,.24-1.16,1.27,1.27,0,0,0-.69-.55l-1.88-.91a100.72,100.72,0,0,1-16.7-10.41c-3-2.29-5.84-4.87-8.82-7.21,1.13.88-.6-6.25-.93-7.09-1.05-2.63-1.88-5.28-2.78-8-.15-.45-.41-1.31-.75-2.35-1.16-3.53-3.32-9.14-5.54-7.87C176.29,263,176.21,268.34,176.25,271.24Z"/><path class="cls-6" d="M228.83,301.24a3.06,3.06,0,0,1,.89,2.12,2.07,2.07,0,0,1-1.35,1.52,6,6,0,0,1-2.11.29,16.84,16.84,0,0,1-6.56-.75c-.82-.33-1.72-1.12-1.39-1.94.24-.6,1-.79,1.63-.89l2.59-.4c2.39-.38,5-.73,7.14.36Z"/><g id="_群組_" data-name="&lt;群組&gt;"><path class="cls-6" d="M272.84,271.32l-1.67,1.77a.77.77,0,0,1-.91.18.29.29,0,0,0-.13,0v0a.29.29,0,0,1,0-.31l2.09-2.81a1.33,1.33,0,0,0,.15-1.32l-.06-.12a.25.25,0,0,0-.42-.05l-2.39,3.15a.31.31,0,0,1-.45,0h0a.3.3,0,0,1-.06-.35l2.2-4.49a.32.32,0,0,0,0-.33c-.1-.14-.06-.19-.18-.32s-.53-.22-.64,0l-2.75,4.33a.37.37,0,0,1-.38.15h0a.35.35,0,0,1-.26-.46l1.53-4.73a.25.25,0,0,0-.22-.32c-.27,0-.45-.11-.69,0a.69.69,0,0,0-.24.24,62.68,62.68,0,0,0-2.82,6.47l-.1.3s0,0-.07,0c-.81-1-1.11-2.35-2.39-3.06-.46-.26.12,1.78.13,1.93a17.19,17.19,0,0,1-.33,3.27,5.31,5.31,0,0,0,2.77,4,4.08,4.08,0,0,0,4.42-1.08,23,23,0,0,0,3.56-4.2,3.57,3.57,0,0,0,.45-.92,5.78,5.78,0,0,0,.13-.69A.16.16,0,0,0,272.84,271.32Z"/><path class="cls-7" d="M266,275.44a3.64,3.64,0,0,0-1.53-3.28s-.05,0,0,0a4.35,4.35,0,0,1,1,1.5,14.87,14.87,0,0,1,.23,1.76A.18.18,0,0,0,266,275.44Z"/></g><path class="cls-1" d="M213.34,301.92c1.13-.84,2.33,1,2.43,2.44.9,12.84-8.25,24.48-8.8,37.34a44.82,44.82,0,0,1-1.82-11.58c.14-6.61,3.15-12.83,4-19.38.48-3.86.08-7.21-3.31-9.87,1.89-.41,4.69-1.87,6.5-1.19s3.32,2.54,3,4.45Z"/><path class="cls-1" d="M246.15,312.86c.52,4.4,1.43,8.76.81,13.17-.55,3.93-3.08,7-3.79,10.79-2.09-8.76-.14-17.95-2.17-26.73a30.7,30.7,0,0,0-2-5.75,9,9,0,0,0-2.28-3.32,3.72,3.72,0,0,0-3.79-.34c1.21-1.67,3.4-3,5.43-2.65,3.69.62,5.64,5.52,6.63,8.67A34.61,34.61,0,0,1,246.15,312.86Z"/><path class="cls-6" d="M176.25,271.24a16.73,16.73,0,0,0,7.16-1.25c-1.16-3.53-3.32-9.14-5.54-7.87C176.29,263,176.21,268.34,176.25,271.24Z"/><path class="cls-6" d="M260.42,279.51a15.09,15.09,0,0,0,2.91,1.43,15.59,15.59,0,0,0,2.81.79c.22-1.39.39-2.79.5-4.2.05-.75.41-2.7-.56-3a.78.78,0,0,0-.35-.05,2.43,2.43,0,0,0-1.55.87A39.52,39.52,0,0,0,260.42,279.51Z"/><path class="cls-7" d="M225,285.58c0-.18.28-.25.32-.06a2.2,2.2,0,0,0,.39.76,5.48,5.48,0,0,0,.6.75,6.88,6.88,0,0,0,1.45,1.07c.41.22,1,.22,1.16.72s-.16.88-.43,1.21a3.37,3.37,0,0,1-.42.5,2.2,2.2,0,0,1-.66.3c-.13.05-.35.06-.33-.15s.27-.25.41-.3a1.16,1.16,0,0,0,.6-.47,2.27,2.27,0,0,0,.43-.63c.24-.6-.6-.66-1-.87a6.76,6.76,0,0,1-1.58-1.19,6,6,0,0,1-.57-.76A2.27,2.27,0,0,1,225,285.58Z"/><path class="cls-6" d="M177.54,264s-6-3-4-7,5-2,5-2a1.39,1.39,0,0,1,2,0,1.39,1.39,0,0,1,2,0c1,1-2,7-2,7"/><path class="cls-9" d="M44.54,90.83c2.63,4.67,3.43,11,.35,15.68-2.93,4.43-7.81,7.22-11.82,10.54a35,35,0,0,0-6.61,7.08c-2.65,3.86-2.25,8.78-1.61,13.16.6,4.09,1.36,8.14.61,12.26a15,15,0,0,1-6,9.35c-1.63,1.25-3.38,2.32-5,3.59a16.58,16.58,0,0,0-4.6,6c-2,4.26-1.77,9.3-2,13.89,0,.35-.58.31-.6,0a35.34,35.34,0,0,1,.9-12.3,17.72,17.72,0,0,1,6.44-9c3.49-2.68,7.06-4.55,8.94-8.76s1.22-9,.55-13.44c-.62-4-1.16-8,0-12,1-3.15,3.27-5.76,5.58-8,4-4,9.08-6.69,12.94-10.78a12.49,12.49,0,0,0,3.39-6.73c.55-3.61-.84-6.94-1.83-10.33,0-.18.21-.35.31-.16Z"/><path class="cls-10" d="M45.81,103.47c.34,1,1.93,12.86,8.4,20.18-6.42-2.9-10.4,1.95-12,3.75C45.63,113,45.81,103.47,45.81,103.47Z"/><path class="cls-11" d="M34.05,115.16a23.22,23.22,0,0,0,2.36,21.08c-1.61-.35-7.48-.87-9.06.93C28.58,122.25,34.05,115.16,34.05,115.16Z"/><path class="cls-12" d="M43.73,107.14c-5.15,6.76-19.28,6.56-19.28,6.56a12.48,12.48,0,0,0,.65-11.2C31.83,112.65,43.73,107.14,43.73,107.14Z"/><path class="cls-12" d="M28.43,120.62c-5.15,6.75-16.61,6.53-16.61,6.53.8-5-1.28-6.32-2.1-8.63A22.7,22.7,0,0,0,28.43,120.62Z"/><path class="cls-12" d="M24.65,138.59c.62.92,5.33,11.87,13.52,17.18-7-1.07-9.49,4.68-10.53,6.84C27,147.79,24.65,138.59,24.65,138.59Z"/><path class="cls-13" d="M21.54,156.37A23.21,23.21,0,0,0,21,177.58c-1.55-.57-7.29-1.89-9.1-.31C15.16,162.65,21.54,156.37,21.54,156.37Z"/><path class="cls-13" d="M24.08,132.22c.53,8.47-10.29,17.58-10.29,17.58A12.48,12.48,0,0,0,7,140.9C18.69,144.17,24.08,132.22,24.08,132.22Z"/><path class="cls-10" d="M22.28,155.09a40.13,40.13,0,0,1-20.46,9.84c3.52-4.08-.44-7.29-1.82-9.31C10.8,158.65,22.28,155.09,22.28,155.09Z"/><path class="cls-14" d="M63.56,34.3,44.71,90.46C47,62.82,37.58,29.83,36,24.63A125.88,125.88,0,0,0,63.56,34.3Z"/><path class="cls-15" d="M63.9,33.28A125.91,125.91,0,0,1,37,23.92C56.42,23.51,70,8.56,73.71,4.05Z"/><path class="cls-15" d="M64.61,34.54A174.64,174.64,0,0,0,95,38.63C75.76,51,50.89,84.09,45.53,91.39Z"/><path class="cls-14" d="M65,33.52,74.82,4.11C77,27,90.21,35.4,94.44,37.53A173,173,0,0,1,65,33.52Z"/><path class="cls-16" d="M97.68,38.7a.54.54,0,0,0,.49-.54.54.54,0,0,0-.54-.53c-.35,0-35.38-.16-63.33-15.09a.54.54,0,0,0-.73.22.53.53,0,0,0,.22.72C62,38.54,97.28,38.7,97.63,38.7Z"/><path class="cls-17" d="M43.56,96.24a.54.54,0,0,0,.46-.37L76,.71a.54.54,0,0,0-1-.34L43,95.53a.53.53,0,0,0,.33.68A.58.58,0,0,0,43.56,96.24Z"/><path class="cls-9" d="M94.41,37.52c-.64-.06-1,.39-1.5.8s-1.13,1-1.67,1.61a37.21,37.21,0,0,0-3.36,4,48.12,48.12,0,0,0-6.3,12.16,26.85,26.85,0,0,0-1.87,9.34.19.19,0,0,0,.36,0c1-2.61,1.58-5.4,2.46-8.06a53.83,53.83,0,0,1,2.74-6.79A44.05,44.05,0,0,1,91.7,41c.56-.63,1.14-1.25,1.75-1.84.46-.46,1-.83,1.1-1.53a.15.15,0,0,0-.14-.13Z"/><path class="cls-9" d="M35.14,23.64a6.79,6.79,0,0,0,.73,3.44,38.89,38.89,0,0,0,2.07,4.32,70.37,70.37,0,0,0,6.9,10.07c5.93,7.41,13,14.28,21.13,19.22a35.55,35.55,0,0,0,13.45,5.15c.8.11,1.15-1.11.34-1.23-8.73-1.25-16.54-6.72-23-12.44a92.42,92.42,0,0,1-17-20.11,44.14,44.14,0,0,1-2.6-4.72c-.57-1.23-.9-2.58-1.56-3.75-.09-.17-.41-.16-.44.05Z"/><path class="cls-9" d="M73.68,3.65a27.39,27.39,0,0,0-.23,3.62c-.07,1.46-.18,2.9-.31,4.35-.31,3.67-.62,7.33-.82,11a107.36,107.36,0,0,0,1.48,27,65.84,65.84,0,0,0,5.46,16.26c.42.85,1.67.11,1.26-.74a75.48,75.48,0,0,1-6.83-28.5c-.44-8,.21-16,.72-23.95.11-1.68.21-3.36.26-5a12,12,0,0,0-.25-4c-.1-.33-.67-.39-.74,0Z"/><path class="cls-9" d="M79.41,65.35c-.55,2.3.31,5.07.89,7.28A139.12,139.12,0,0,0,84.7,86c2.3,6.12,4.79,12.16,7.39,18.15q4.75,11,10,21.73,5.81,12.06,12.08,23.87,6.6,12.45,13.75,24.61c4.77,8.08,9.72,16.05,14.93,23.85,5,7.47,10.21,14.8,15.76,21.87a212,212,0,0,0,16.16,18.49c1.32,1.32,2.65,2.62,4,3.89l.53.49c.1.09.47.43.26.08a.89.89,0,0,1,.08.33,5.69,5.69,0,0,1,0,1.93c-.44,2.58-2.32,4.43-3.17,6.83a13.08,13.08,0,0,0-.34,7.23,12,12,0,0,0,3.39,6.05c.36.34.81-.15.53-.52-3.06-3.93-3.9-10-1.11-14.31a11.85,11.85,0,0,0,2.34-6.39,5,5,0,0,0-.19-1.48c-.21-.59-.83-1-1.28-1.4a183.11,183.11,0,0,1-16-17.27c-5.59-6.77-10.82-13.82-15.82-21-5.28-7.63-10.29-15.43-15.11-23.35s-9.52-16.12-14-24.33q-6.47-11.87-12.47-24-5.44-11-10.49-22.24C93,102.79,90.28,96.42,87.74,90c-1.9-4.83-3.73-9.7-5.29-14.65a39.58,39.58,0,0,1-2.1-8.71,6.25,6.25,0,0,1,0-1c.11-.62-.81-.89-1-.26Z"/><path class="cls-6" d="M181.46,260s-3.37-1.3-4.92,0c-1,.87.6,2.59,2,3,.9.26,2.32.68,3,0,1.33-1.37,3.18-3.94,1-6"/><path class="cls-7" d="M178.63,259.69a3.31,3.31,0,0,1,3.38.69s0,.05,0,0a3.3,3.3,0,0,0-1.51-.56,15.66,15.66,0,0,0-1.9.15C178.34,260,178.4,259.75,178.63,259.69Z"/></g></g></svg>