<?xml version="1.0" encoding="UTF-8" standalone="no"?>
<svg width="309px" height="39px" viewBox="0 0 309 39" version="1.1" xmlns="http://www.w3.org/2000/svg" xmlns:xlink="http://www.w3.org/1999/xlink">
    <!-- Generator: Sketch 40 (33762) - http://www.bohemiancoding.com/sketch -->
    <title>Page 1</title>
    <desc>Created with Sketch.</desc>
    <defs>
        <polygon id="path-1" points="0 64 355.75 64 355.75 0.856 0 0.856"></polygon>
    </defs>
    <g id="Page-1" stroke="none" stroke-width="1" fill="none" fill-rule="evenodd">
        <g transform="translate(-17.000000, -14.000000)">
            <polygon id="Fill-1" fill="#009D96" points="177.284 25.7676 192.06 25.7676 192.06 21.7926 177.284 21.7926"></polygon>
            <g id="Group-61" transform="translate(0.000000, 0.143600)">
                <path d="M175.9082,23.2939 C173.9422,25.8249 171.4102,28.4759 168.7212,30.2019 L166.8352,26.3079 C168.9212,24.9799 170.8882,22.9739 172.4952,20.9659 C173.6192,21.7279 174.7432,22.5319 175.9082,23.2939 L175.9082,23.2939 Z" id="Fill-2" fill="#009D96"></path>
                <polygon id="Fill-4" fill="#009D96" points="113.4355 41.9638 119.2565 41.9638 119.2565 25.0208 123.4315 25.0208 123.4315 47.5848 119.2565 47.5848 119.2565 46.0578 103.2375 46.0188 103.1975 47.4638 98.9025 47.4638 98.9025 24.8208 103.1975 24.8208 103.1975 41.9638 109.1005 41.9228 109.1005 21.1258 113.4355 21.1258"></polygon>
                <polygon id="Fill-6" fill="#009D96" points="89.0996 25.8095 79.6306 25.8255 79.5506 25.9055 79.5506 31.6865 88.4636 31.7645 88.4636 35.8605 79.5106 35.8605 79.4696 43.1275 90.2696 43.1665 90.2696 47.3445 64.3746 47.3445 64.3746 43.2075 75.1336 43.1665 75.1336 35.9015 66.2986 35.8605 66.2986 31.7235 75.1336 31.7235 75.1336 25.7845 65.6996 25.7025 65.6996 21.6085 89.1046 21.6085"></polygon>
                <path d="M306.6348,41.3916 C306.6598,41.4426 306.7348,41.4166 306.7858,41.4166 L306.8128,33.6756 L309.5688,33.6756 L309.5688,46.4006 L306.8128,46.4006 L301.9548,38.2036 L301.8788,38.2286 L301.8788,46.4006 L299.1468,46.4006 L299.1468,33.6756 L302.1558,33.7006 L306.6348,41.3916 Z" id="Fill-8" fill="#009D96"></path>
                <path d="M317.2363,38.3554 C317.3133,38.3804 317.4643,38.4074 317.5403,38.3304 L321.7643,33.7004 L325.2053,33.7004 L320.4733,38.6594 L320.5003,39.0394 L325.5593,46.4244 L322.4473,46.4524 C321.1323,44.6054 319.8683,42.6564 318.5263,40.8094 L318.3243,40.8354 L317.2363,41.8714 L317.2363,46.4244 L314.4793,46.4244 L314.4793,33.6754 L317.2363,33.6754 L317.2363,38.3554 Z" id="Fill-10" fill="#009D96"></path>
                <path d="M193.0937,29.8799 L193.0937,33.7339 L189.1577,33.7339 L189.0767,44.7749 C188.9157,45.6159 188.2357,46.3799 187.4717,46.7409 C185.6627,47.5029 183.3767,47.2239 181.3687,47.2239 L179.8017,43.2079 L184.6217,43.1279 C184.8217,43.0499 184.9817,42.8079 185.0627,42.6069 L185.1017,33.7749 L175.8687,33.6929 C175.8277,32.7319 175.9087,31.7239 175.7867,30.8429 C175.4267,31.5249 174.9447,32.2079 174.4627,32.8509 L174.4627,47.4639 L170.4487,47.4639 C170.4077,44.2919 170.4887,41.0809 170.4077,37.9089 C169.7257,38.4329 169.0837,39.0729 168.4387,39.6359 L166.6337,35.2999 C169.3637,33.2919 171.3697,30.5209 173.0177,27.7919 L175.8687,29.8389 L193.0937,29.8799 Z" id="Fill-12" fill="#009D96"></path>
                <path d="M288.7988,41.5947 C289.2548,39.9997 289.7598,38.4327 290.2658,36.8647 L290.3178,36.8647 C290.7988,38.4327 291.3498,40.0377 291.7788,41.6077 C291.6528,41.6497 289.7848,41.5687 288.7988,41.5947 L288.7988,41.5947 Z M291.6308,33.6007 L288.7988,33.6007 L284.3968,46.1477 L284.3458,46.4247 L287.2048,46.4247 L287.9138,44.1987 C287.9638,44.0487 287.9638,43.8947 288.0908,43.7687 L292.5688,43.7947 L293.4018,46.4007 L296.2358,46.4007 L296.2358,46.3737 L291.6308,33.6007 Z" id="Fill-14" fill="#009D96"></path>
                <path d="M149.168,31.7646 C148.968,31.4856 149.047,30.8016 149.129,30.4406 L153.546,30.4406 C153.826,30.7216 153.665,31.2856 153.705,31.6866 C152.26,31.8466 150.655,31.7646 149.168,31.7646 L149.168,31.7646 Z M148.848,42.4446 L148.848,35.5006 C149.088,35.2996 149.932,35.1376 149.852,35.7806 C150.172,37.8686 150.655,39.8776 151.497,41.7626 C150.655,42.0456 149.77,42.3666 148.848,42.4446 L148.848,42.4446 Z M149.047,25.7436 L149.249,25.5846 L153.585,25.5846 C153.787,25.9056 153.665,26.4246 153.705,26.8686 L153.585,26.9486 L149.249,26.9486 C148.848,26.7876 149.129,26.1456 149.047,25.7436 L149.047,25.7436 Z M144.952,43.1276 L144.07,43.1276 C144.03,42.6066 144.109,42.0826 144.03,41.6046 C143.868,41.6436 143.83,41.4406 143.789,41.3606 C144.189,40.0376 144.35,38.6706 144.632,37.3466 C143.707,37.0266 142.705,36.8236 141.701,36.6236 L140.857,40.7176 L140.938,40.9206 L143.186,41.4406 C142.344,41.6846 141.539,41.9226 140.576,41.9636 L140.576,36.2236 L144.311,36.2236 L144.35,32.6086 L140.658,32.5286 L140.658,31.6476 C141.501,31.5656 142.385,31.6066 143.267,31.6066 C143.387,31.1236 143.308,30.6026 143.348,30.0786 C143.548,29.8796 143.748,30.2416 143.948,30.2416 C144.392,29.6786 144.594,28.9556 144.952,28.3936 L144.952,43.1276 Z M138.972,25.8256 C139.614,26.4656 140.376,27.1086 140.698,27.9106 L137.567,27.9516 C137.968,27.1886 138.449,26.5066 138.972,25.8256 L138.972,25.8256 Z M157.32,42.4446 C156.998,42.5266 157.159,42.1626 156.877,42.1626 C156.798,41.8836 156.517,41.8036 156.314,41.6046 C156.236,41.3236 155.914,41.3236 155.953,40.9206 C156.075,40.8816 155.953,40.5186 156.236,40.6806 L156.236,40.5596 C156.596,40.3996 156.837,40.1576 157.159,39.9576 C157.238,39.8366 157.44,39.8366 157.479,39.6746 C157.52,39.6356 157.6,39.6746 157.682,39.6356 L157.682,39.5556 C157.72,39.4756 157.841,39.5166 157.882,39.5166 L157.882,39.3936 C157.921,39.3136 158.002,39.3936 158.043,39.3546 L158.043,39.2726 C158.081,39.1946 158.202,39.2356 158.243,39.2356 L158.243,39.1146 C158.322,39.0326 158.404,39.0736 158.482,39.0736 L158.482,38.9516 C158.482,38.9126 158.563,38.9516 158.604,38.9126 L158.604,38.8326 C158.643,38.7526 158.725,38.7936 158.766,38.7936 L158.766,38.4716 C158.442,38.3916 158.604,37.9096 158.243,37.8266 C158.123,37.8266 158.282,37.5866 158.081,37.6686 C157.921,37.5066 157.961,37.2666 157.76,37.1866 C157.682,37.0676 157.641,36.8646 157.52,36.7846 C157.359,36.6646 157.359,36.3836 157.159,36.3446 C157.077,35.9426 156.798,35.7006 156.556,35.5006 C156.476,35.5806 156.436,35.7006 156.275,35.6606 C156.275,35.7006 156.314,35.7806 156.236,35.7806 C155.753,35.9816 155.432,36.5436 154.909,36.7446 C154.75,36.9876 154.469,37.0676 154.227,37.2276 C153.867,37.3466 153.905,37.0266 153.787,36.9056 C153.705,36.3836 153.265,35.6606 153.746,35.2996 L157.76,35.2996 L157.76,21.6086 L145.034,21.6086 L144.952,25.7026 C143.148,24.7396 141.741,22.8116 140.776,21.1256 L137.204,21.1256 C136.041,23.2936 134.313,25.3816 132.227,27.0306 C132.669,28.4346 133.15,29.9186 133.711,31.3256 L134.755,30.6846 C134.957,30.8836 134.836,31.2856 134.877,31.5656 L136.923,31.6066 C136.884,31.9266 136.923,32.2876 136.884,32.6086 L132.868,32.6086 L132.868,36.1416 L136.923,36.2236 L136.884,42.6866 L136.161,43.0086 L132.748,43.2896 L132.95,47.3036 C136.402,46.8216 139.814,46.1786 143.148,45.4576 C143.789,45.7396 143.428,46.6216 143.548,47.2236 C143.83,47.3856 144.392,47.3036 144.671,47.2236 C145.274,47.3036 145.434,46.8626 146.039,47.0246 C146.198,46.7006 146.8,47.0246 147,46.7806 C147.804,46.7006 148.486,46.5006 149.211,46.3386 C149.651,46.2216 150.172,46.2216 150.574,46.0186 C151.016,45.8996 151.658,45.9776 151.979,45.6576 L151.979,43.0886 L152.181,42.9676 C152.419,43.0886 152.542,43.2896 152.583,43.5696 C152.823,43.6496 152.862,43.9716 153.104,44.0926 C153.224,44.0926 153.064,44.3716 153.265,44.2916 C153.265,44.6946 153.746,44.5756 153.746,44.9756 C154.107,45.0556 154.107,45.4966 154.428,45.5776 C154.548,45.8996 154.83,45.9776 155.03,46.1786 C155.071,46.5006 155.473,46.4206 155.473,46.7416 C155.794,46.9016 156.035,47.0616 156.275,47.3036 C156.556,47.2626 156.436,47.3856 156.718,47.3036 C156.877,47.0246 157.077,46.7806 157.198,46.4596 C157.359,46.3386 157.44,46.0986 157.6,46.0186 C157.682,45.8586 157.8,45.7786 157.8,45.5776 C158.002,45.5776 158.002,45.3346 158.081,45.2176 C158.282,44.9346 158.482,44.6946 158.643,44.3326 C158.804,44.3326 158.804,44.1316 158.925,43.9716 L158.925,43.7316 C158.363,43.3286 157.72,43.0086 157.32,42.4446 L157.32,42.4446 Z" id="Fill-16" fill="#009D96"></path>
                <path d="M133.7109,42.5263 C134.3549,42.4073 134.9949,42.2453 135.6389,42.1243 C135.8789,42.0053 136.2809,42.0463 136.3599,41.8033 C136.4019,40.1573 135.9999,38.5913 135.9199,37.0673 C135.5179,36.7843 135.0359,37.0673 134.5959,37.1043 C134.0319,37.2273 133.5089,37.3873 132.9499,37.5073 L133.2299,42.5263 L133.3499,42.6063 C133.5089,42.6063 133.6729,42.6863 133.7109,42.5263" id="Fill-18" fill="#009D96"></path>
                <path d="M85.8545,38.1494 C86.2155,38.7114 86.3355,39.4754 86.1745,40.1984 C85.9725,40.9624 85.2495,41.7624 84.4895,41.9634 C83.4455,42.2864 82.4415,41.9224 81.7185,41.1614 C81.2765,40.6374 81.1145,39.9954 81.1575,39.2724 C81.2355,38.3094 81.9995,37.3464 82.9235,37.1044 C84.0045,36.7844 85.2115,37.1454 85.8545,38.1494" id="Fill-20" fill="#009D96"></path>
                <path d="M278.2353,43.6689 C277.2403,44.6209 275.9323,44.1979 274.3133,44.2249 L274.3133,40.9109 L277.4093,40.8919 C277.8133,41.0169 278.2113,41.2659 278.4623,41.6439 C278.5633,42.2759 278.7403,43.1849 278.2353,43.6689 L278.2353,43.6689 Z M274.3133,35.7759 C275.7433,35.8729 277.8513,35.3889 278.2863,36.7629 C278.3363,37.3429 278.3363,37.9779 277.8303,38.3549 C277.6033,38.5319 277.3493,38.6589 277.0463,38.6589 L274.3133,38.6589 L274.3133,35.7759 Z M279.3223,39.6709 L279.3223,39.4939 C279.7283,39.3169 280.1063,38.9879 280.4103,38.6339 C281.0683,37.7729 281.0683,36.3839 280.6143,35.4469 C280.0303,34.3089 278.8403,33.8789 277.7033,33.6999 L271.4803,33.6759 L271.4803,46.4009 L277.9063,46.4009 C278.5633,46.3239 279.1963,46.1719 279.7783,45.8439 C280.7913,45.2619 281.2973,44.2499 281.4223,43.1869 C281.5253,41.6699 280.5873,40.3549 279.3223,39.6709 L279.3223,39.6709 Z" id="Fill-22" fill="#009D96"></path>
                <path d="M54.5381,26.5869 C57.4281,33.9329 55.3811,42.6069 49.5181,47.7839 C44.4611,52.3619 36.9501,54.0499 30.2471,51.7999 C22.7391,49.3119 17.4811,42.5259 17.0771,34.5769 C16.6771,27.0689 20.6101,20.2839 27.1951,16.7079 C33.2191,13.2569 42.2521,13.8189 47.7531,17.9949 C50.7641,20.0419 53.1721,23.2549 54.5381,26.5869" id="Fill-24" fill="#009D96"></path>
                <path d="M35.5049,23.376 C36.1899,23.173 37.0709,22.653 37.7549,23.173 C38.2359,23.899 39.5619,24.14 39.1999,25.142 C39.8839,25.983 40.6459,26.948 41.5289,27.591 C41.7319,27.63 41.8109,27.511 41.8909,27.39 L41.6499,27.271 C41.9319,27.03 42.6119,27.429 43.0539,27.189 C43.3349,27.189 43.7379,27.271 43.9379,27.55 C44.1399,27.87 44.1789,28.272 44.4609,28.593 L44.6209,28.515 C44.8209,28.874 44.9009,29.196 45.1419,29.519 C46.5889,29.999 47.2699,31.724 48.5549,32.446 C50.1209,33.612 51.7659,34.778 53.6149,35.46 C53.5329,35.7 53.8159,35.7 53.9339,35.78 L53.9339,35.821 C53.6919,35.7 53.3739,35.581 53.1309,35.661 C53.3739,36.022 53.9769,35.86 54.0969,36.265 L53.4539,36.265 C53.4539,36.384 53.6149,36.384 53.6919,36.423 C53.3739,36.304 53.0519,36.544 52.8519,36.142 C51.5259,35.581 50.3199,34.778 49.1569,34.056 L49.1159,34.097 C50.0409,34.978 51.3239,35.618 52.3699,36.224 C52.7319,36.423 53.2539,36.544 53.4539,36.905 C53.3309,36.946 53.1309,36.946 53.0929,37.105 L52.8109,36.946 C52.7319,36.987 52.8109,37.067 52.7699,37.105 L52.9699,37.267 C51.6069,36.704 50.0799,35.86 48.8369,34.858 C48.2349,34.456 47.6309,34.136 47.0299,33.692 C46.9479,33.692 46.8299,33.653 46.7889,33.774 C47.4719,34.296 48.1939,34.616 48.8749,35.099 C47.6309,34.497 46.1469,33.612 45.1419,32.409 C44.7009,31.966 44.0579,31.042 43.2949,31.204 C43.0129,31.364 42.5719,31.325 42.2519,31.485 C42.0109,31.485 41.8109,31.204 41.5669,31.407 C41.3679,31.847 40.7269,31.485 40.6049,31.966 C40.2039,32.128 39.4819,32.009 39.3609,32.487 L39.3999,32.69 C38.5979,33.052 37.5139,32.931 36.9499,33.692 C36.7909,33.855 36.4709,33.653 36.3099,33.855 C36.3489,33.774 36.2709,33.692 36.1899,33.692 C35.9869,33.612 35.8679,33.814 35.7069,33.855 C35.5869,33.653 35.8679,33.612 35.8279,33.493 C35.4669,33.331 35.3059,33.814 35.0239,33.974 C35.0649,33.653 35.4279,33.612 35.5469,33.331 C35.3459,33.21 35.1849,33.413 35.0239,33.454 C35.1059,33.413 35.2649,33.132 35.0239,33.132 C35.2259,32.81 35.6689,32.931 35.7869,32.569 L35.4669,32.569 C35.7869,32.329 36.1489,32.048 36.4299,31.806 C36.3099,31.806 36.0689,31.485 35.8679,31.765 C35.8679,31.724 35.9479,31.687 35.9089,31.647 C35.7479,31.485 35.5469,31.765 35.3459,31.765 C35.3459,31.806 35.3869,31.647 35.2649,31.606 L35.1459,31.606 C35.2649,31.524 35.4279,31.325 35.5869,31.204 L35.5049,31.124 C36.1099,30.763 36.7099,30.36 37.3139,30.079 L37.4329,29.962 C37.2739,29.759 36.9499,29.759 36.7909,29.962 C37.3139,29.919 36.8319,29.356 37.3549,29.276 C37.4329,28.835 37.8369,28.515 38.1559,28.313 C37.6349,27.831 37.4329,26.948 36.8319,26.667 C36.7909,26.308 36.4299,26.667 36.3919,26.308 C35.6689,26.267 34.8239,26.628 34.3419,25.983 C33.9809,25.864 33.4989,25.905 33.1379,25.944 C32.8169,26.226 32.6959,26.628 32.4959,26.948 C32.1739,27.189 32.0149,27.591 31.7739,27.952 C31.4099,28.435 30.9699,29.036 30.3279,29.239 L30.3279,29.157 C29.8859,29.759 28.9229,29.519 28.3609,30.161 L28.3199,29.999 C28.1179,29.962 27.9589,30.079 27.9179,30.241 L27.9179,30.319 C27.6389,30.241 27.4369,30.563 27.3159,30.722 C26.6339,31.444 25.5089,31.444 24.7859,32.048 C24.7069,32.087 24.8249,32.048 24.7859,32.009 C23.4619,32.288 22.8189,33.292 21.9349,34.255 C21.6939,34.655 21.2939,34.899 20.9719,35.22 C21.0529,35.542 20.5709,35.661 20.4099,35.821 C20.5709,35.542 20.9329,35.3 20.9719,34.978 C20.6509,35.138 20.5709,35.501 20.2099,35.661 C20.0109,35.501 20.4099,35.38 20.2899,35.22 L19.8089,35.581 L20.2489,34.978 C20.0109,35.019 19.7679,35.419 19.4869,35.46 C19.4079,35.581 19.2859,35.581 19.1259,35.581 L19.1259,35.542 C19.2859,35.419 19.5669,35.138 19.8089,34.899 C19.5259,34.737 19.2059,35.099 19.0059,35.058 C18.9269,35.019 18.9649,34.819 18.7649,34.899 C18.9649,34.737 19.1649,34.616 19.2449,34.376 C19.0859,34.335 18.8859,34.456 18.7249,34.536 C18.7649,34.335 19.1649,34.216 19.0449,33.894 C18.5229,33.814 18.6039,34.335 18.1629,34.456 C18.6039,33.855 19.2449,33.493 19.6879,32.851 L19.6499,32.81 C20.4899,31.886 21.5349,31.325 22.5779,30.722 C23.4209,30.241 24.5459,29.999 25.1479,29.196 C25.3889,28.874 25.6299,28.593 25.7909,28.272 C25.9119,28.313 25.9519,28.192 25.9909,28.112 C26.5929,27.753 27.2359,27.511 27.9589,27.511 C28.2789,27.189 28.8839,27.39 29.1219,26.948 C29.9649,25.944 30.2859,24.7 31.0109,23.696 C31.2509,23.376 31.5309,22.853 32.0149,22.733 C33.2189,22.853 34.3829,23.054 35.5049,23.376" id="Fill-26" fill="#FEFEFE"></path>
                <polygon id="Fill-28" fill="#009D96" points="44.4609 28.1513 44.2989 27.6303 44.4609 28.0733"></polygon>
                <path d="M44.7402,28.956 C44.5812,28.915 44.6212,28.796 44.5402,28.675 C44.6212,28.716 44.7012,28.835 44.7402,28.956" id="Fill-30" fill="#009D96"></path>
                <path d="M25.5889,29.2392 C25.4709,28.9952 25.7909,28.9152 25.9119,28.7162 C25.8699,28.9152 25.7499,29.1162 25.5889,29.2392" id="Fill-32" fill="#009D96"></path>
                <polygon id="Fill-34" fill="#009D96" points="29.4434 29.3174 29.4434 29.2764 29.5634 29.2764"></polygon>
                <path d="M28.6016,29.5576 C28.5206,29.6376 28.4796,29.7586 28.3616,29.7176 C28.3616,29.5966 28.5206,29.4796 28.6016,29.5576" id="Fill-36" fill="#009D96"></path>
                <path d="M36.3096,30.2412 C36.1096,30.4012 35.7066,30.5202 35.6686,30.7622 C35.3056,30.7212 35.0646,31.0832 34.7826,31.0832 C34.8246,30.7622 35.3056,30.9642 35.3456,30.6412 L35.6686,30.4012 L35.7066,30.5202 C35.8276,30.4012 36.2296,30.4812 36.1096,30.1612 L36.3096,30.2412 Z" id="Fill-38" fill="#FEFEFE"></path>
                <path d="M35.0234,30.4814 C34.9434,30.6414 34.7824,30.7624 34.5834,30.8014 C34.6644,30.6024 34.8244,30.6024 35.0234,30.4814" id="Fill-40" fill="#009D96"></path>
                <path d="M26.7549,30.9638 C26.8339,31.0828 26.6749,30.9638 26.6339,31.0418 C26.6749,31.0028 26.7139,30.9638 26.7549,30.9638" id="Fill-42" fill="#009D96"></path>
                <mask id="mask-2" fill="white">
                    <use xlink:href="#path-1"></use>
                </mask>
                <g id="Clip-45"></g>
                <polygon id="Fill-44" fill="#009D96" mask="url(#mask-2)" points="35.787 31.286 35.909 31.286 35.909 31.163 35.787 31.163"></polygon>
                <path d="M35.626,31.4443 C35.626,31.5243 35.547,31.5243 35.505,31.6063 L35.387,31.6063 C35.346,31.4853 35.467,31.4443 35.547,31.4073 C35.587,31.4073 35.587,31.4443 35.626,31.4443" id="Fill-46" fill="#009D96" mask="url(#mask-2)"></path>
                <path d="M36.3916,32.208 C36.3486,32.37 36.1486,32.37 36.0686,32.409 C35.9486,32.37 36.1096,32.329 36.1096,32.247 C36.2296,32.288 36.2706,32.167 36.3916,32.208" id="Fill-47" fill="#009D96" mask="url(#mask-2)"></path>
                <path d="M36.4707,32.4463 C36.4297,32.6083 36.1487,32.6083 35.9877,32.7313 C35.9477,32.5693 36.1897,32.4873 36.3097,32.4093 C36.3487,32.4463 36.4707,32.4093 36.4707,32.4463" id="Fill-48" fill="#009D96" mask="url(#mask-2)"></path>
                <path d="M46.1055,32.8506 C46.2665,32.9306 46.3465,33.1316 46.4665,33.2506 L46.3465,33.3716 C46.0665,33.0926 45.9055,32.8096 45.7445,32.4466 C45.8645,32.5696 45.9465,32.7706 46.1055,32.8506" id="Fill-49" fill="#009D96" mask="url(#mask-2)"></path>
                <path d="M51.8877,34.9775 C51.7657,35.0575 51.6067,34.8995 51.4867,34.8585 L51.8877,34.9775 Z" id="Fill-50" fill="#009D96" mask="url(#mask-2)"></path>
                <path d="M53.0107,35.581 C52.6907,35.38 52.2477,35.38 52.0067,35.138 C52.3697,35.179 52.7317,35.38 53.0107,35.581" id="Fill-51" fill="#009D96" mask="url(#mask-2)"></path>
                <polygon id="Fill-52" fill="#009D96" mask="url(#mask-2)" points="49.4795 35.542 48.9975 35.179 49.3185 35.339"></polygon>
                <polygon id="Fill-53" fill="#009D96" mask="url(#mask-2)" points="52.8926 36.7451 52.9316 36.6651 53.0516 36.7451"></polygon>
                <path d="M52.7314,36.9463 L52.5704,36.9463 L52.5704,36.8643 C52.6094,36.9053 52.6904,36.9053 52.7314,36.9463" id="Fill-54" fill="#009D96" mask="url(#mask-2)"></path>
                <polygon id="Fill-55" fill="#009D96" mask="url(#mask-2)" points="203.0381 34.0068 212.1731 34.0068 212.1731 36.0888 205.5141 36.0888 205.5141 38.8268 211.7091 38.8268 211.7091 40.9068 205.5141 40.9068 205.5141 44.2468 212.3991 44.2468 212.3991 46.3268 203.0381 46.3268"></polygon>
                <path d="M223.1846,42.0947 C223.3036,42.7337 223.6316,44.4477 225.8676,44.4477 C227.6046,44.4477 228.2966,43.5397 228.2966,42.7487 C228.2966,41.7157 227.4336,41.4947 225.1606,40.9427 C223.9446,40.6317 221.2246,39.9597 221.2246,37.2447 C221.2246,35.9017 222.1016,33.8077 225.7136,33.8077 C228.1216,33.8077 230.3226,34.7477 230.4256,37.5337 L227.9346,37.6407 C227.8296,37.0017 227.6456,35.8467 225.6806,35.8467 C224.9376,35.8467 223.6006,36.0717 223.6006,37.0717 C223.6006,37.8627 224.3706,38.2057 226.3506,38.6717 C228.2276,39.1187 230.7736,39.7227 230.7736,42.7487 C230.7736,44.2467 229.8236,45.5027 228.7596,45.9857 C227.6606,46.4987 226.4166,46.5347 225.8516,46.5347 C224.5266,46.5347 221.2586,46.4167 220.7766,42.3157 L223.1846,42.0947 Z" id="Fill-56" fill="#009D96" mask="url(#mask-2)"></path>
                <path d="M237.6728,34.0068 L237.6728,40.6668 C237.6728,42.1288 237.6728,42.7338 237.9848,43.3188 C238.4478,44.1928 239.4098,44.3998 240.1698,44.3998 C242.5398,44.3998 242.5398,42.9048 242.5398,40.8038 L242.5398,34.0068 L245.0188,34.0068 L245.0188,40.4798 C245.0188,42.6788 244.9348,43.8998 244.3338,44.8338 C243.3838,46.2928 241.6118,46.5348 240.2368,46.5348 C235.1958,46.5348 235.1958,43.4208 235.1958,40.5828 L235.1958,34.0068 L237.6728,34.0068 Z" id="Fill-57" fill="#009D96" mask="url(#mask-2)"></path>
                <polygon id="Fill-58" fill="#009D96" mask="url(#mask-2)" points="250.0928 34.0068 252.4988 34.0068 257.5078 42.2348 257.5408 42.2348 257.5408 34.0068 259.8468 34.0068 259.8468 46.3268 257.3548 46.3268 252.4288 38.2948 252.3948 38.2948 252.3948 46.3268 250.0928 46.3268"></polygon>
                <path d="M218.5381,44.75 C218.5381,43.871 217.8291,43.159 216.9511,43.159 C216.0731,43.159 215.3611,43.871 215.3611,44.75 C215.3611,45.63 216.0731,46.341 216.9511,46.341 C217.8291,46.341 218.5381,45.63 218.5381,44.75" id="Fill-59" fill="#009D96" mask="url(#mask-2)"></path>
            </g>
        </g>
    </g>
</svg>