<svg xmlns="http://www.w3.org/2000/svg" xmlns:xlink="http://www.w3.org/1999/xlink" viewBox="0 0 507 319.49"><defs><style>.cls-1{fill:none;}.cls-2{clip-path:url(#clip-path);}.cls-3{fill:#61afa5;}.cls-4{fill:#539b91;opacity:0.77;}.cls-5{fill:#fcfcfc;opacity:0.82;}.cls-6{fill:#f2b361;}.cls-7{fill:#845e40;}.cls-8{fill:#f8b6a3;}.cls-9{fill:#f18a6f;}.cls-10{fill:#fed6ae;}.cls-11{fill:#bae0da;}.cls-12{fill:#666cb1;}.cls-13{fill:#fffefe;}.cls-14{fill:#c97a2b;}.cls-15{fill:#2f335d;}</style><clipPath id="clip-path" transform="translate(0 -28.55)"><polygon class="cls-1" points="13.18 89 13.18 342 349.18 342 349.18 5 14.18 0 13.18 89"/></clipPath></defs><title>mountain</title><g id="圖層_2" data-name="圖層 2"><g id="圖層_1-2" data-name="圖層 1"><g class="cls-2"><path class="cls-3" d="M0,348s102.32-34.42,166.7-124.76q3.86-5.42,7.51-10.28c58.6-77.9,80.37-51.64,147.69-9.51,70.13,43.88,185.1,0,185.1,0V348Z" transform="translate(0 -28.55)"/><path class="cls-4" d="M84.09,346H507V242.85S396.18,354.56,357.19,294.92,253.9,175.63,201.92,254.21,84.09,346,84.09,346Z" transform="translate(0 -28.55)"/></g><path class="cls-5" d="M191.32,192.23s27.33-36.07,57.93-28.42,54.66,28.42,54.66,28.42S203.34,203.17,191.32,192.23Z" transform="translate(0 -28.55)"/><path class="cls-6" d="M296.76,117.85v26.7s-6.64,2.21-18.24,2.47c-11,.25-24.65-1-27-.82V119.5c2.31-.21,15.93,1.07,27,.82C290.12,120.06,296.76,117.85,296.76,117.85Z" transform="translate(0 -28.55)"/><path class="cls-7" d="M251.56,119.5V174a7.36,7.36,0,0,0-1.3-.22,4.18,4.18,0,0,0-1.43.17V116.8h2.73Z" transform="translate(0 -28.55)"/><path class="cls-8" d="M218.87,59.81a42.69,42.69,0,0,1-4.54-.1c-1.66-.32-5.53-.83-4.58-3.2.4-1,2.62-6.36,3.08-7.45.64-1.52-.61,1.4,0,0,.71.31,1.17,1.09,1.94,1.32a18.4,18.4,0,0,1,3.43,1.43c.34.18.71.41.79.77a1.42,1.42,0,0,1-.19.82,5.77,5.77,0,0,0-.22.58,7.5,7.5,0,0,0-.42,2.73A7.72,7.72,0,0,0,218.87,59.81Z" transform="translate(0 -28.55)"/><path class="cls-8" d="M220.9,64.7c4.08-.12,7.8-3.19,11.15-5.19a41.65,41.65,0,0,0,7.17-5.37c1.13-1.08,15-17.77,9.15-19.1-2.21-.5-5.24,4-6.11,5.16-1.19,1.56-2.31,3.21-3.58,4.68-2.78,3.2-2.55,5.71-7.23,6.91a72.88,72.88,0,0,0-12.73,4.56,8,8,0,0,0-2.9,1.93C213.23,61.32,218,64.78,220.9,64.7Z" transform="translate(0 -28.55)"/><g id="_群組_" data-name="&lt;群組&gt;"><path class="cls-8" d="M254.63,34.21l-1.62.84a.59.59,0,0,1-.7-.1.27.27,0,0,0-.08-.07h0a.23.23,0,0,1,.1-.22l2.19-1.47a1,1,0,0,0,.43-.9v-.1a.19.19,0,0,0-.29-.14l-2.49,1.64a.24.24,0,0,1-.33-.09h0a.23.23,0,0,1,0-.26l2.68-2.65a.22.22,0,0,0,.07-.24c0-.12,0-.15,0-.27s-.32-.28-.44-.2l-3,2.39a.27.27,0,0,1-.31,0h0a.28.28,0,0,1-.07-.39L253,29a.18.18,0,0,0-.08-.28c-.19-.08-.29-.2-.49-.16a.38.38,0,0,0-.23.11,46,46,0,0,0-3.63,3.89l-.15.19s0,0-.05,0c-.32-.92-.2-1.95-.92-2.77-.27-.3-.37,1.29-.4,1.4A13.43,13.43,0,0,1,246,33.59a4,4,0,0,0,1,3.54,3,3,0,0,0,3.4.34,17.4,17.4,0,0,0,3.59-2.1,2.51,2.51,0,0,0,.55-.53l.27-.46A.13.13,0,0,0,254.63,34.21Z" transform="translate(0 -28.55)"/><path class="cls-9" d="M248.75,35.43a2.69,2.69,0,0,0-.26-2.71s0,0,0,0a3.26,3.26,0,0,1,.31,1.3,8.25,8.25,0,0,1-.28,1.31A.14.14,0,0,0,248.75,35.43Z" transform="translate(0 -28.55)"/></g><path class="cls-10" d="M236,58.48a1.54,1.54,0,0,0-.24-.5l-4.42-6.71c-.62.07-1.23.16-1.84.25-1.78.89-3.62,1.63-5.46,2.4-1.36.56-2.71,1.13-4,1.77l-.64.32,4.55,7.25A23,23,0,0,0,227.4,68a1.22,1.22,0,0,0,.66.39c.56,0,.88-.6,1.08-1.13A15.12,15.12,0,0,1,235,59.82C235.48,59.49,236.06,59.05,236,58.48Z" transform="translate(0 -28.55)"/><path class="cls-8" d="M170.37,37.57l1.2,1.39a.58.58,0,0,0,.68.17l.1,0h0a.23.23,0,0,0,0-.23l-1.49-2.19a1,1,0,0,1-.06-1,1,1,0,0,1,0-.1.19.19,0,0,1,.32,0l1.7,2.45a.22.22,0,0,0,.33,0h0a.22.22,0,0,0,.06-.26l-1.5-3.46a.23.23,0,0,1,0-.25c.08-.1.05-.13.14-.23s.4-.14.48,0l1.93,3.34a.27.27,0,0,0,.28.13h0a.26.26,0,0,0,.21-.33l-1-3.61a.18.18,0,0,1,.18-.24c.2,0,.34-.07.51,0a.45.45,0,0,1,.17.19,47.46,47.46,0,0,1,1.92,5l.07.23s0,0,0,0c.64-.74.91-1.74,1.89-2.23.36-.18-.14,1.33-.16,1.44a14.74,14.74,0,0,0,.14,2.48,4,4,0,0,1-2.21,2.92,3.07,3.07,0,0,1-3.29-1,16.75,16.75,0,0,1-2.54-3.28,3,3,0,0,1-.32-.7l-.07-.53A.12.12,0,0,1,170.37,37.57Z" transform="translate(0 -28.55)"/><path class="cls-9" d="M175.37,42.38A2.76,2.76,0,0,1,176.63,40s0,0,0,0a3.22,3.22,0,0,0-.77,1.1,8.5,8.5,0,0,0-.24,1.32A.14.14,0,0,1,175.37,42.38Z" transform="translate(0 -28.55)"/><path class="cls-9" d="M171.71,108.52a.63.63,0,0,1-.34-.23c-.08-.15,0-.34.1-.5a18.6,18.6,0,0,1,5.89-6.3,8.4,8.4,0,0,0,1.54-1.16,6.7,6.7,0,0,1,1.2.67l1.63,1.07h0a19.51,19.51,0,0,0-2.65,3.83,3.37,3.37,0,0,1,.83.1c1.18.3,2.11,1.21,3.26,1.59a2.15,2.15,0,0,0,1.25.08,1.75,1.75,0,0,0,.51-.26,1.75,1.75,0,0,1-.51.26,2.15,2.15,0,0,1-1.25-.08c-1.15-.38-2.08-1.29-3.26-1.59a3.37,3.37,0,0,0-.83-.1,7.47,7.47,0,0,0-4.1,1.71,16.12,16.12,0,0,1-2.47,1.53A2.22,2.22,0,0,0,171.71,108.52Z" transform="translate(0 -28.55)"/><path class="cls-8" d="M183.17,107.59c-1.15-.38-2.08-1.29-3.26-1.59a3.37,3.37,0,0,0-.83-.1,19.51,19.51,0,0,1,2.65-3.83h0l3.79,2.48a4.42,4.42,0,0,1,.18,1.34,2.23,2.23,0,0,1-.77,1.52,1.75,1.75,0,0,1-.51.26A2.15,2.15,0,0,1,183.17,107.59Z" transform="translate(0 -28.55)"/><path class="cls-11" d="M169.8,108.86c1.43-3,3.9-5.4,6.35-7.68a3.39,3.39,0,0,1,1.56-1,2.11,2.11,0,0,1,1.19.14,8.4,8.4,0,0,1-1.54,1.16,18.6,18.6,0,0,0-5.89,6.3c-.09.16-.18.35-.1.5a.63.63,0,0,0,.34.23,2.22,2.22,0,0,1,.8.62,4.66,4.66,0,0,1-2.36.52.56.56,0,0,1-.36-.12C169.61,109.38,169.7,109.08,169.8,108.86Z" transform="translate(0 -28.55)"/><path class="cls-11" d="M212.12,137.69l.06,0Z" transform="translate(0 -28.55)"/><path class="cls-11" d="M211.78,137.87l.06,0Z" transform="translate(0 -28.55)"/><polygon class="cls-11" points="212.46 108.93 212.46 108.93 212.46 108.93 212.46 108.93"/><path class="cls-11" d="M209.46,139l-.23.17h0Z" transform="translate(0 -28.55)"/><path class="cls-11" d="M211.47,138h0Z" transform="translate(0 -28.55)"/><path class="cls-11" d="M212.53,137.43l.06,0Z" transform="translate(0 -28.55)"/><path class="cls-11" d="M209.54,138.91l.23-.14Z" transform="translate(0 -28.55)"/><path class="cls-11" d="M210.13,138.59l.31-.15Z" transform="translate(0 -28.55)"/><path class="cls-11" d="M211.05,138.19l.11-.05Z" transform="translate(0 -28.55)"/><path class="cls-11" d="M209.78,138.77l.3-.16Z" transform="translate(0 -28.55)"/><path class="cls-11" d="M210.45,138.44l.34-.14Z" transform="translate(0 -28.55)"/><path class="cls-11" d="M210.79,138.3l.21-.09Z" transform="translate(0 -28.55)"/><path class="cls-9" d="M205.94,146.83a1,1,0,0,1-.22-.48,38.52,38.52,0,0,1-1.3-7.92c0-.67-.06-1.34-.14-2a7.13,7.13,0,0,1,1.07-.45l1.44-.52h0a11.75,11.75,0,0,0,1.87,4.27h0a7.51,7.51,0,0,0-1.12,4.32,15.23,15.23,0,0,1-.3,3.1l-.67-.08A1.05,1.05,0,0,1,205.94,146.83Z" transform="translate(0 -28.55)"/><path class="cls-8" d="M206.79,135.45c1.34-.55,3.11-1.11,4.66-1.67a4.3,4.3,0,0,1,1.17.66,1.77,1.77,0,0,1,0,2.95l-.06.05s0,.05-.07.05h0l-.28.17-.06,0-.28.15-.06,0-.29.13h0l-.31.13-.11.05-.05,0-.21.09h0l-.34.14h0l-.31.15,0,0-.3.16h0l-.23.14-.08,0c-.08.06-.15.16-.23.16h0a2.73,2.73,0,0,0-.57.6h0a10.8,10.8,0,0,1-1.88-4.26Z" transform="translate(0 -28.55)"/><path class="cls-11" d="M203.26,137.39a2.33,2.33,0,0,1,1-1c.08.67.1,1.34.14,2a38.52,38.52,0,0,0,1.3,7.92,1,1,0,0,0,.22.48,1.05,1.05,0,0,0,.63.23l.67.08a4.63,4.63,0,0,1-1,2,.59.59,0,0,1-.3.22c-.24,0-.43-.21-.54-.43-1.56-2.95-2-6.36-2.32-9.69A3.47,3.47,0,0,1,203.26,137.39Z" transform="translate(0 -28.55)"/><path class="cls-12" d="M213.22,96.72c-.19-.53-.57-1.44-.92-2.27l.74,2.27.09.26a.32.32,0,0,0,.12.18C213.38,97.28,213.34,97.08,213.22,96.72Z" transform="translate(0 -28.55)"/><path class="cls-12" d="M211.7,92.61h0c-.28-.29.12.71.6,1.85Z" transform="translate(0 -28.55)"/><path class="cls-12" d="M208.18,136.48a4.9,4.9,0,0,0,2.89,3c3.42,1.14,11.8-3.86,14.43-5.71a51.72,51.72,0,0,0,9.07-8c3-3.16-.15-19-3.9-31.77-.45-1.55-.91-3.06-1.37-4.49-.35-1.12-.71-2.19-1.06-3.21q-.63-1.83-1.23-3.39c-.46-1.23-.91-2.32-1.32-3.22l-.51.82a8.17,8.17,0,0,0-16-1.05,12.52,12.52,0,0,0-.45,3.36,16.4,16.4,0,0,0,1,5.6,28.87,28.87,0,0,0,1.92,4.18c.11.12,1.39,2.24,2.57,4.13a20.64,20.64,0,0,0,2,2.92s0,0,0,0c.26.36.5.72.72,1.06,3.89,5.91,4.36,10.38,8.7,18.12.45.8-2.26,2.57-2.9,3.2-4.36,4.29-9.16,7.68-13.75,11.72a3,3,0,0,0-1,1.3A2.47,2.47,0,0,0,208.18,136.48Z" transform="translate(0 -28.55)"/><path class="cls-12" d="M181.21,107.39c0,1.71,2.44,3.39,3.67,4.29a73.87,73.87,0,0,0,17.35,9.54,7.86,7.86,0,0,0,3.07.67c2.58-.1,4.46-2.45,5.65-4.74a42,42,0,0,0,2.68-7c.55-1.79,1.06-3.59,1.67-5.35A35.27,35.27,0,0,1,217,100.7a2.12,2.12,0,0,0,.11-.21l.18-.33a14.18,14.18,0,0,1,2.19-2.1,3.38,3.38,0,0,1-.49.11,1.63,1.63,0,0,1,1.61-.18l.07-.08c.32-.32.62-.67.92-1s.49-.59.73-.9l0,0c.31-.39.6-.79.89-1.2h0c1.26-1.76,2.38-3.61,3.52-5.44l.16-.26a20,20,0,0,0,1.35-2.75c.24-.6.46-1.2.66-1.82.15-.45.29-.92.43-1.38-.77,0-1.54-.1-2.32-.19-1.19-.14-2.38-.33-3.56-.55-1,0-2-.09-2.95-.16a32.89,32.89,0,0,1-5-.62,25.59,25.59,0,0,1-4.13-1.44c-.76,2.3-.89,2.25-.11,0l-.06,0-.64-.26-.77-.21a15.42,15.42,0,0,0-1,3.22c-.4,1.81-.62,3.6-.76,4.3,0,.13,0,.27-.08.4-.06.31-.12.62-.19.92-.27,1.28-.55,2.56-.85,3.84-.27,1.09-.54,2.19-.82,3.28a146.53,146.53,0,0,1-4.46,14c-.18.45-8-3.33-8.54-3.6-2-.92-4-1.84-6-2.63a15.93,15.93,0,0,0-2.21-.74,1.62,1.62,0,0,0-1.63.38,6.76,6.76,0,0,0-1,1.73,13.81,13.81,0,0,0-.68,1.64l-.09.27A2.68,2.68,0,0,0,181.21,107.39Zm22.72-4.14.72-2.27C204.42,101.74,204.19,102.5,203.93,103.25Zm-1.54,4.83.26-.81A4.54,4.54,0,0,1,202.39,108.08Z" transform="translate(0 -28.55)"/><path class="cls-8" d="M211.8,52.94l-.06.05.14.12,0-.15V52.9Z" transform="translate(0 -28.55)"/><path class="cls-10" d="M200.17,69.15l.85.9a23.6,23.6,0,0,1,2.4,3.09c.58.89,1.11,1.82,1.6,2.75s.84,1.67,1.22,2.49a14.82,14.82,0,0,1,.95,9.42c-.85,3-1,3.71,1.73,5.38,5.39,3.31,9.93,2.53,15.81,2.15a20,20,0,0,0,4.55-.63,7,7,0,0,0,3.78-2.48,1.88,1.88,0,0,0,.39-.89,2.41,2.41,0,0,0-.39-1.29c-1.87-3.6-3.49-7.77-3.31-11.81.18-4.23.79-8.6,0-12.81a18.53,18.53,0,0,0-4.4-9.47c-1.48-1.58-4-1.81-6-1.37-1.54.33-3,1-4.5,1.46-3.23,1-6.7,1.23-9.89,2.37h0l0,0a4.52,4.52,0,0,0-.47.18,11.56,11.56,0,0,0-3.86,2.47h0C198.39,63.28,197.57,66.3,200.17,69.15Z" transform="translate(0 -28.55)"/><path class="cls-8" d="M174.6,40.8c-.86,1.24,1.59,5.85,2.16,7a30.18,30.18,0,0,0,7.75,9.84,39.51,39.51,0,0,0,9.09,5.59l1.44.67c3.51,1.66,7.54,4.75,11.21,2,2-1.52,3.31-4.71.79-6.5a9.27,9.27,0,0,0-4.19-1.25,51.37,51.37,0,0,1-11.57-3c-3-1.17-3.43-3.7-5.66-5.76-1.44-1.31-2.74-2.69-4.1-4.1C180.53,44.21,175.88,38.93,174.6,40.8Z" transform="translate(0 -28.55)"/><path class="cls-8" d="M209.22,57.32c-.48.55.88.16,2.3.77a3.61,3.61,0,0,0,1.57.17c1.73-.07,5,.31,6.09-1.48.34-.53,0-1.18-.63-1.57a4.46,4.46,0,0,0-1.25-.55,8.14,8.14,0,0,0-3.86.16A15.08,15.08,0,0,0,209.22,57.32Z" transform="translate(0 -28.55)"/><path class="cls-13" d="M205,58.41l.68-.18-.67.18-.07,0Z" transform="translate(0 -28.55)"/><path class="cls-13" d="M204.9,58.43h0a1.38,1.38,0,0,0-1,.26Z" transform="translate(0 -28.55)"/><path class="cls-10" d="M202.25,68.62c-2.81-1-4.74-3.54-7.21-4.71,1.3-1.9.47-4,1.44-5.95s1.68-1.35,3.66-1.17l6.73.6h0a11.51,11.51,0,0,1,4.5.82l.47.2c2.21,2.5-2.39,8-4.25,9.47A5.21,5.21,0,0,1,202.25,68.62Z" transform="translate(0 -28.55)"/><path class="cls-14" d="M213.72,50.64c-.84.93-1.75,1.35-3,.36-2.29-1.8-4-6.83-1.63-9.13.42-.41.95-.7,1.36-1.12a10.06,10.06,0,0,1,2.9-2.57c1.76-.76,2.61.12,4.25.6a.71.71,0,0,0,1-.34A3.92,3.92,0,0,1,220,37.16a3.36,3.36,0,0,1,3.68.73,3.91,3.91,0,0,1,1,3.56,6.24,6.24,0,0,1-2,3.24c-1.21,1.08-3,.86-4.58,1.34C216.11,46.61,215,49.22,213.72,50.64Z" transform="translate(0 -28.55)"/><path class="cls-8" d="M222,52.54c0-.16.1-.32.14-.48a15.08,15.08,0,0,0,.29-6.51,2.71,2.71,0,0,0-1.6-2.32c-1.2-.34-2.36.74-3.61.74a2.55,2.55,0,0,0-1.17.09,1.37,1.37,0,0,0-.51.65c-.35.71-.71,2.95-1.81,2.87-.25,0-.25-2.7-1.78-2-1.27.55-.36,2.9.5,3.41a11.38,11.38,0,0,0,4.09,5.44,4,4,0,0,0,2.35.93,3,3,0,0,0,2.19-1.09A4.85,4.85,0,0,0,222,52.54Z" transform="translate(0 -28.55)"/><path class="cls-15" d="M220.81,47.05c.15.05.21,0,.33-.1a.78.78,0,0,1,.45-.09.61.61,0,0,1,.35.17c.08.07.12.18.24.22s0,0,0,0c.11-.23-.25-.49-.45-.56a1.12,1.12,0,0,0-.94.16.16.16,0,0,0-.06.12v0A.08.08,0,0,0,220.81,47.05Z" transform="translate(0 -28.55)"/><path class="cls-15" d="M217.19,46.84a1.44,1.44,0,0,1,.61-.15.67.67,0,0,1,.65.34,0,0,0,0,0,.07,0c.13-.32-.23-.53-.5-.58a1.3,1.3,0,0,0-1,.14A.15.15,0,0,0,217.19,46.84Z" transform="translate(0 -28.55)"/><path class="cls-9" d="M220.15,48.26a6,6,0,0,1,0-2.12s0,0,0,0c0,.61,0,1.22.06,1.83s.2.9.29,1.35c.13.67-.5.83-1.08.87-.23,0-.21-.32,0-.34.44,0,.84-.09.88-.56A4.75,4.75,0,0,0,220.15,48.26Z" transform="translate(0 -28.55)"/><path class="cls-13" d="M218.78,52a1.25,1.25,0,0,0,1.74-.43,1.64,1.64,0,0,0,.22-.46c.07-.23-1.67-.13-2-.19a1.68,1.68,0,0,0-.75,0C217.6,51.05,218.09,51.65,218.78,52Z" transform="translate(0 -28.55)"/></g></g></svg>