<svg xmlns="http://www.w3.org/2000/svg" viewBox="0 0 95 116.69"><defs><style>.cls-1{fill:#fff;stroke:#999;stroke-miterlimit:10;}.cls-2{fill:#72bafd;}.cls-3{fill:#9bd3cb;}.cls-4{fill:#fbc34e;}.cls-5{fill:#d3d3d8;}</style></defs><title>p-1</title><g id="圖層_2" data-name="圖層 2"><g id="圖層_1-2" data-name="圖層 1"><polygon class="cls-1" points="67.61 1.36 47.5 3.6 27.46 1.36 0.5 1.36 0.5 116.19 47.5 116.19 94.5 116.19 94.5 1.36 67.61 1.36"/><path class="cls-2" d="M20,36.27h7.06V43H20Z"/><path class="cls-3" d="M20,50.63h7.06v6.73H20Z"/><path class="cls-4" d="M20,65h7.06v6.73H20Z"/><path class="cls-5" d="M20,86.51H37.93v6.73H20Z"/><path class="cls-3" d="M57.07,99.42l-9.56-9.56,4.76-4.75,4.8,4.79,9.58-9.58,4.76,4.76Z"/><polygon class="cls-4" points="47.5 0 27.39 0 27.39 19.08 47.5 19.08 67.61 19.08 67.61 0 47.5 0"/><polygon class="cls-5" points="47.5 36.27 33.78 36.27 33.78 43 47.5 43 75.01 43 75.01 36.27 47.5 36.27"/><polygon class="cls-5" points="33.78 50.63 33.78 57.36 47.5 57.36 47.5 57.36 75.01 57.36 75.01 50.63 47.5 50.63 33.78 50.63"/><polygon class="cls-5" points="47.5 64.98 33.78 64.98 33.78 71.71 47.5 71.71 75.01 71.71 75.01 64.98 47.5 64.98 47.5 64.98"/></g></g></svg>