<svg xmlns="http://www.w3.org/2000/svg" viewBox="0 0 139.98 137.78"><defs><style>.cls-1{fill:#fff;}.cls-2{fill:#b3b3b3;}.cls-3{fill:#fc7a51;}.cls-4{fill:#f9de58;}.cls-5{fill:#d3d3d8;}.cls-6{fill:#f2c8ad;}.cls-7{fill:#404041;}.cls-8{fill:#e6e6e6;}.cls-9{fill:#9bd3cb;}.cls-10{fill:#72bafd;}.cls-11{fill:gray;}</style></defs><title>p-2</title><g id="圖層_2" data-name="圖層 2"><g id="圖層_1-2" data-name="圖層 1"><path class="cls-1" d="M140,85.14v39.05a3.74,3.74,0,0,1-2.77,3.61,3.83,3.83,0,0,1-1,.13H73.31a3.73,3.73,0,0,1-3.73-3.74v-39a3.73,3.73,0,0,1,3.73-3.73h62.94a3.83,3.83,0,0,1,1,.12A3.74,3.74,0,0,1,140,85.14Z"/><path class="cls-2" d="M140,85.14v3.71H69.58V85.14a3.73,3.73,0,0,1,3.73-3.73h62.94A3.73,3.73,0,0,1,140,85.14Z"/><circle class="cls-3" cx="74.69" cy="85.13" r="2.33"/><circle class="cls-4" cx="80.9" cy="85.13" r="2.33"/><rect class="cls-5" x="76.53" y="95.92" width="54.05" height="2.27"/><rect class="cls-5" x="76.53" y="101.86" width="54.05" height="2.27"/><rect class="cls-5" x="76.53" y="107.8" width="54.05" height="2.27"/><rect class="cls-5" x="76.53" y="113.73" width="54.05" height="2.27"/><rect class="cls-5" x="76.53" y="119.67" width="54.05" height="2.27"/><path class="cls-6" d="M65.94,65.26,53.15,77.06a15,15,0,0,1-20.41,0L20,65.26A15.4,15.4,0,0,1,15,52.79l.75-15.31a27.44,27.44,0,0,1,.4-3A27.24,27.24,0,0,1,59.36,17.78a25.34,25.34,0,0,1,2.11,1.77A26.3,26.3,0,0,1,63.78,22a27.13,27.13,0,0,1,5.93,12.48,25.26,25.26,0,0,1,.4,3l.74,15.31A15.36,15.36,0,0,1,65.94,65.26Z"/><path class="cls-1" d="M52.27,61.35a9.51,9.51,0,0,1-.42,2.79,9.33,9.33,0,0,1-17.81,0,9.51,9.51,0,0,1-.42-2.79Z"/><path class="cls-4" d="M77.8,34.85H73.73a30.79,30.79,0,1,0-61.57,0H8.09a34.86,34.86,0,0,1,69.71,0Z"/><path class="cls-7" d="M69.71,34.44A27.13,27.13,0,0,0,63.78,22a26.3,26.3,0,0,0-2.31-2.41c-.32-.31-.66-.6-1-.89l-.21-.17-.85-.67,0,0h0a27.23,27.23,0,0,0-32.82,0h0c-.37.29-.74.58-1.1.89l-.11.09c-.35.29-.69.6-1,.91l-.12.11c-.33.32-.65.64-1,1l-.09.09q-.51.54-1,1.11a27.15,27.15,0,0,0-5.93,12.47,22.85,22.85,0,0,0,10.35-6.09,23,23,0,0,0,32.83,0A22.85,22.85,0,0,0,69.71,34.44Z"/><circle class="cls-7" cx="30.75" cy="47.05" r="3.13"/><circle class="cls-7" cx="55.14" cy="47.05" r="3.13"/><polygon class="cls-8" points="26.1 74.25 42.04 90.19 34.54 102.39 22.03 77.38 26.1 74.25"/><polygon class="cls-8" points="59.79 74.25 43.85 90.19 51.35 102.39 63.86 77.38 59.79 74.25"/><polygon class="cls-9" points="47.37 100.51 42.95 93.01 38.52 100.51 42.95 104.93 47.37 100.51"/><polygon class="cls-9" points="55.1 125.63 42.95 105 30.79 125.63 42.95 137.78 55.1 125.63"/><path class="cls-3" d="M27.62,66.12a2,2,0,0,1-2,2H16A8.16,8.16,0,0,1,7.82,60V54.56h4.06V60a4.09,4.09,0,0,0,4.1,4.1h9.6A2,2,0,0,1,27.62,66.12Z"/><path class="cls-10" d="M12.77,31.39a12.77,12.77,0,1,0,0,25.54"/><path class="cls-10" d="M73.12,31.39a12.77,12.77,0,0,1,0,25.54"/><path class="cls-11" d="M27.62,66.12a2,2,0,0,1-2,2H19.64V64.09h5.94A2,2,0,0,1,27.62,66.12Z"/></g></g></svg>