<svg xmlns="http://www.w3.org/2000/svg" viewBox="0 0 138.95 83.69"><defs><style>.cls-1{fill:#f2af81;}.cls-2{fill:#f2c8ad;}.cls-3{fill:#72bafd;}.cls-4{fill:#fc7a51;}.cls-5{fill:#ebeef2;}</style></defs><title>p-3</title><g id="圖層_2" data-name="圖層 2"><g id="圖層_1-2" data-name="圖層 1"><path class="cls-1" d="M113.51,40,110,11.3l-6.61.81h0L90.55,4.89a7.78,7.78,0,0,0-4.51-1L65.8,5.81a7.72,7.72,0,0,0-6,3.81L45.56,34.18a3.39,3.39,0,0,0,1.73,4.88l.59.22a12.6,12.6,0,0,0,3.43.77L49.5,41.62l-3.62,3.15L35.59,53.55a4.39,4.39,0,0,0-.42,6.2l1,1.2a5.65,5.65,0,0,0,8,.54L48.11,66a5.64,5.64,0,0,0,5,1.9,5.57,5.57,0,0,0,3-1.35L60,71.06A5.63,5.63,0,0,0,65,73a5.56,5.56,0,0,0,3-1.34l2.14,1.84a5.64,5.64,0,0,0,8,.55L81,71.47l24.4-19,0,0H115Z"/><path class="cls-2" d="M107.5,57.46,94.42,46.19l-3.63-3.13-2.6-2.24L77,31.18l1.29-11A7.6,7.6,0,0,0,72.79,12L48.41,5.24A5.65,5.65,0,0,0,41.88,8.1l-3.06,6L25.66,13.2,22.29,41.89,20.82,54.36l12.81.85,0,0L60.42,78.3l2.91,2.51a5.64,5.64,0,0,0,8-.59l3.91-4.53a5.59,5.59,0,0,0,3,1.34,5.66,5.66,0,0,0,5-1.93l3.9-4.53a5.53,5.53,0,0,0,3,1.33A5.6,5.6,0,0,0,95.05,70L99,65.45a5.65,5.65,0,0,0,8-.59l1-1.2A4.4,4.4,0,0,0,107.5,57.46Z"/><path class="cls-1" d="M34.3,55.18l-1.55,2a5.06,5.06,0,0,0,1,7.09h0a5.06,5.06,0,0,0,7.09-1l1.55-2.05a5.06,5.06,0,0,0-1-7.09h0A5.06,5.06,0,0,0,34.3,55.18Z"/><path class="cls-1" d="M43.74,59.49l-2.92,3.85a5.07,5.07,0,0,0,1,7.1h0a5.09,5.09,0,0,0,7.1-1l2.92-3.86a5.07,5.07,0,0,0-1-7.09h0A5.07,5.07,0,0,0,43.74,59.49Z"/><path class="cls-1" d="M52.88,64.2l-4,5.26a5.06,5.06,0,0,0,1,7.09h0a5.06,5.06,0,0,0,7.09-1l4-5.25a5.07,5.07,0,0,0-1-7.1h0A5.06,5.06,0,0,0,52.88,64.2Z"/><path class="cls-1" d="M61.18,70,57,75.57a5.06,5.06,0,0,0,1,7.09h0a5.06,5.06,0,0,0,7.09-1l4.21-5.56a5.06,5.06,0,0,0-1-7.09h0A5.06,5.06,0,0,0,61.18,70Z"/><path class="cls-1" d="M103.37,12.11,90.55,4.89a7.78,7.78,0,0,0-4.51-1L65.8,5.81a7.72,7.72,0,0,0-6,3.81L45.56,34.18a3.39,3.39,0,0,0,1.73,4.88l.59.22a12.66,12.66,0,0,0,14.54-4.14L67.89,28S81,43.24,95.5,25.47"/><path class="cls-3" d="M138.93,56.27l-6.7-54.48A2,2,0,0,0,130,0L114.28,2a7.44,7.44,0,0,0-6.48,8.29L113.18,54a7.45,7.45,0,0,0,7.39,6.53,7,7,0,0,0,.91-.05l15.68-1.93A2,2,0,0,0,138.93,56.27Z"/><path class="cls-4" d="M24.67,2,9,0A2,2,0,0,0,6.72,1.79L0,56.27a2,2,0,0,0,1.77,2.27l15.68,1.93c.31,0,.61.05.91.05A7.45,7.45,0,0,0,25.77,54l5.38-43.75A7.44,7.44,0,0,0,24.67,2Z"/><circle class="cls-5" cx="125.92" cy="47.54" r="3.93"/><circle class="cls-5" cx="12.81" cy="47.54" r="3.93"/></g></g></svg>