<svg xmlns="http://www.w3.org/2000/svg" viewBox="0 0 120.97 111.98"><defs><style>.cls-1{fill:#f2c8ad;}.cls-2{fill:#e0ebfc;}.cls-3{fill:#fbc34e;}.cls-4{fill:#ffea92;}.cls-5{fill:#404041;}.cls-6{fill:#fc7a51;}.cls-7{fill:#72bafd;}</style></defs><title>p-4</title><g id="圖層_2" data-name="圖層 2"><g id="圖層_1-2" data-name="圖層 1"><path class="cls-1" d="M120.59,78.25h0A9,9,0,0,0,108.36,75L88,86.66a7,7,0,0,1-4.74.82L56.67,82.74,53,82.32H74.79a8.88,8.88,0,0,0,8.87-8.88,2.79,2.79,0,0,0-2.79-2.79H55.66a12.2,12.2,0,0,0-5.12,1.12L34,79.41a19.67,19.67,0,0,1-8.24,1.81h-.56v23.33h4.88l55.62-4.88h.12l1.6-.13a9.25,9.25,0,0,0,3.73-1.2l28.42-16.27A2.77,2.77,0,0,0,120.59,78.25Z"/><path class="cls-2" d="M23.81,75.71H18.14V109h5.67a1.38,1.38,0,0,0,1.38-1.38V77.09A1.38,1.38,0,0,0,23.81,75.71Z"/><circle class="cls-3" cx="66.25" cy="30.23" r="30.23"/><circle class="cls-4" cx="66.25" cy="30.23" r="24.76"/><path class="cls-5" d="M64.6,43.53C61,43,58.34,40.73,58,37.06a.66.66,0,0,1,.66-.71h2.87a.67.67,0,0,1,.66.56,3.6,3.6,0,0,0,2,2.81.67.67,0,0,0,1-.6V32.18a.67.67,0,0,0-.49-.64C61.41,30.62,58,29.42,58,24.32A7.35,7.35,0,0,1,64.6,16.8a.67.67,0,0,0,.56-.66V14.28a.66.66,0,0,1,.66-.67h.89a.67.67,0,0,1,.66.67V16.1a.66.66,0,0,0,.55.66A6.93,6.93,0,0,1,74.16,23a.66.66,0,0,1-.65.76H70.66a.67.67,0,0,1-.65-.54,3.79,3.79,0,0,0-1.6-2.37.67.67,0,0,0-1,.55v6.67a.66.66,0,0,0,.49.64c3.26.89,6.62,2.06,6.62,7.16a7.59,7.59,0,0,1-6.56,7.63.66.66,0,0,0-.55.65V46a.66.66,0,0,1-.66.66h-.89a.65.65,0,0,1-.66-.66V44.18A.66.66,0,0,0,64.6,43.53Zm.56-16.6V21.1a.67.67,0,0,0-.87-.64A3.51,3.51,0,0,0,62,24.09a3.53,3.53,0,0,0,2.23,3.43A.67.67,0,0,0,65.16,26.93Zm2.21,6.38v5.83a.67.67,0,0,0,.94.61,3.84,3.84,0,0,0,2.26-3.67,3.47,3.47,0,0,0-2.24-3.36A.66.66,0,0,0,67.37,33.31Z"/><path class="cls-6" d="M99,59V35.36a1,1,0,0,0-1-1H88.45a1,1,0,0,0-1,1V59a1,1,0,0,1-1,1H83.8a1,1,0,0,0-.71,1.72l9.15,9.15a1,1,0,0,0,1.43,0l9.15-9.15a1,1,0,0,0-.71-1.72H100A1,1,0,0,1,99,59Z"/><path class="cls-7" d="M16.62,112H0V71.68H16.62a1.52,1.52,0,0,1,1.52,1.52v37.27A1.51,1.51,0,0,1,16.62,112Z"/></g></g></svg>