<svg xmlns="http://www.w3.org/2000/svg" viewBox="0 0 45 45"><defs><style>.cls-1{fill:#ff9076;}.cls-2{fill:#fff;}</style></defs><title>scroll-down</title><g id="圖層_2" data-name="圖層 2"><g id="圖層_1-2" data-name="圖層 1"><circle class="cls-1" cx="22.5" cy="22.5" r="22.5"/><path class="cls-2" d="M33,21.94,32,20.87a1.81,1.81,0,0,0-1.29-.52,1.73,1.73,0,0,0-1.28.52L25.23,25v-10a1.75,1.75,0,0,0-.54-1.28,1.78,1.78,0,0,0-1.28-.53H21.59a1.78,1.78,0,0,0-1.28.53,1.74,1.74,0,0,0-.53,1.28V25L15.6,20.87a1.73,1.73,0,0,0-1.28-.52,1.81,1.81,0,0,0-1.29.52l-1,1.07a1.74,1.74,0,0,0-.54,1.29A1.67,1.67,0,0,0,12,24.5l9.24,9.26a1.74,1.74,0,0,0,1.28.52,1.81,1.81,0,0,0,1.29-.52L33,24.5a1.73,1.73,0,0,0,.53-1.27A1.81,1.81,0,0,0,33,21.94Z"/></g></g></svg>